solid IBL_Frame2TTL
facet normal 4.862011176806709e-16 -1.0 6.042785319745501e-16
  outer loop
    vertex 38.580169266088056 11.748432050002478 -26.069999999999567
    vertex 44.38016926608807 11.748432050002485 -19.269999999999573
    vertex 38.580169266088056 11.748432050002481 -19.269999999999573
  endloop
endfacet
facet normal 4.862011176806709e-16 -1.0 6.042785319745501e-16
  outer loop
    vertex 44.38016926608807 11.748432050002485 -19.269999999999573
    vertex 38.580169266088056 11.748432050002478 -26.069999999999567
    vertex 44.38016926608807 11.748432050002481 -26.069999999999567
  endloop
endfacet
facet normal -1.0 0.0 0.0
  outer loop
    vertex 44.38016926608807 11.748432050002481 -26.069999999999567
    vertex 44.380169266088046 10.635394828637262 -23.24881523343925
    vertex 44.380169266088046 10.698432050002475 -22.76999999999959
  endloop
endfacet
facet normal -1.0 0.0 0.0
  outer loop
    vertex 44.380169266088046 10.635394828637262 -23.24881523343925
    vertex 44.38016926608807 11.748432050002481 -26.069999999999567
    vertex 44.380169266088046 10.450579047003684 -23.694999999999588
  endloop
endfacet
facet normal -1.0 0.0 0.0
  outer loop
    vertex 44.380169266088046 10.450579047003684 -23.694999999999588
    vertex 44.38016926608807 11.748432050002481 -26.069999999999567
    vertex 44.380169266088046 10.156579595197595 -24.078147545194703
  endloop
endfacet
facet normal -1.0 0.0 0.0
  outer loop
    vertex 44.380169266088046 10.156579595197595 -24.078147545194703
    vertex 44.38016926608807 11.748432050002481 -26.069999999999567
    vertex 44.380169266088046 9.773432050002487 -24.372146997000804
  endloop
endfacet
facet normal -1.0 0.0 0.0
  outer loop
    vertex 44.380169266088046 9.773432050002487 -24.372146997000804
    vertex 44.38016926608807 11.748432050002481 -26.069999999999567
    vertex 44.38016926608807 5.948432050002456 -26.069999999999474
  endloop
endfacet
facet normal -1.0 0.0 0.0
  outer loop
    vertex 44.380169266088046 9.773432050002487 -24.372146997000804
    vertex 44.38016926608807 5.948432050002456 -26.069999999999474
    vertex 44.380169266088046 9.327247283442151 -24.55696277863437
  endloop
endfacet
facet normal -1.0 0.0 0.0
  outer loop
    vertex 44.380169266088046 9.327247283442151 -24.55696277863437
    vertex 44.38016926608807 5.948432050002456 -26.069999999999474
    vertex 44.380169266088046 8.848432050002486 -24.61999999999955
  endloop
endfacet
facet normal -1.0 0.0 0.0
  outer loop
    vertex 44.380169266088046 8.848432050002486 -24.61999999999955
    vertex 44.38016926608807 5.948432050002456 -26.069999999999474
    vertex 44.380169266088046 8.369616816562823 -24.556962778634375
  endloop
endfacet
facet normal -1.0 0.0 0.0
  outer loop
    vertex 44.380169266088046 8.369616816562823 -24.556962778634375
    vertex 44.38016926608807 5.948432050002456 -26.069999999999474
    vertex 44.380169266088046 7.9234320500024875 -24.372146997000808
  endloop
endfacet
facet normal -1.0 0.0 0.0
  outer loop
    vertex 44.380169266088046 7.9234320500024875 -24.372146997000808
    vertex 44.38016926608807 5.948432050002456 -26.069999999999474
    vertex 44.380169266088046 7.540284504807369 -24.078147545194703
  endloop
endfacet
facet normal -1.0 0.0 0.0
  outer loop
    vertex 44.380169266088046 7.540284504807369 -24.078147545194703
    vertex 44.38016926608807 5.948432050002456 -26.069999999999474
    vertex 44.380169266088046 7.246285053001276 -23.694999999999588
  endloop
endfacet
facet normal -1.0 0.0 0.0
  outer loop
    vertex 44.380169266088046 7.246285053001276 -23.694999999999588
    vertex 44.38016926608807 5.948432050002456 -26.069999999999474
    vertex 44.380169266088046 7.0614692713677005 -23.24881523343925
  endloop
endfacet
facet normal -1.0 0.0 0.0
  outer loop
    vertex 44.380169266088046 7.0614692713677005 -23.24881523343925
    vertex 44.38016926608807 5.948432050002456 -26.069999999999474
    vertex 44.380169266088046 6.998432050002477 -22.769999999999587
  endloop
endfacet
facet normal -1.0 0.0 0.0
  outer loop
    vertex 44.380169266088046 6.998432050002477 -22.769999999999587
    vertex 44.38016926608807 5.948432050002456 -26.069999999999474
    vertex 44.38016926608807 5.948432050002484 -19.26999999999957
  endloop
endfacet
facet normal -1.0 0.0 0.0
  outer loop
    vertex 44.38016926608807 11.748432050002485 -19.269999999999573
    vertex 44.380169266088046 9.773432050002484 -21.16785300299833
    vertex 44.38016926608807 5.948432050002484 -19.26999999999957
  endloop
endfacet
facet normal -1.0 0.0 0.0
  outer loop
    vertex 44.380169266088046 9.773432050002484 -21.16785300299833
    vertex 44.38016926608807 11.748432050002485 -19.269999999999573
    vertex 44.380169266088046 10.156579595197599 -21.461852454804475
  endloop
endfacet
facet normal -1.0 0.0 0.0
  outer loop
    vertex 44.380169266088046 10.156579595197599 -21.461852454804475
    vertex 44.38016926608807 11.748432050002485 -19.269999999999573
    vertex 44.380169266088046 10.450579047003696 -21.844999999999587
  endloop
endfacet
facet normal -1.0 0.0 0.0
  outer loop
    vertex 44.380169266088046 10.450579047003696 -21.844999999999587
    vertex 44.38016926608807 11.748432050002485 -19.269999999999573
    vertex 44.380169266088046 10.635394828637262 -22.291184766559923
  endloop
endfacet
facet normal -1.0 0.0 0.0
  outer loop
    vertex 44.380169266088046 10.635394828637262 -22.291184766559923
    vertex 44.38016926608807 11.748432050002485 -19.269999999999573
    vertex 44.38016926608807 11.748432050002481 -26.069999999999567
  endloop
endfacet
facet normal -1.0 0.0 0.0
  outer loop
    vertex 44.380169266088046 10.635394828637262 -22.291184766559923
    vertex 44.38016926608807 11.748432050002481 -26.069999999999567
    vertex 44.380169266088046 10.698432050002475 -22.76999999999959
  endloop
endfacet
facet normal -1.0 0.0 0.0
  outer loop
    vertex 44.38016926608807 5.948432050002484 -19.26999999999957
    vertex 44.380169266088046 9.773432050002484 -21.16785300299833
    vertex 44.380169266088046 9.327247283442148 -20.983037221364768
  endloop
endfacet
facet normal -1.0 0.0 0.0
  outer loop
    vertex 44.38016926608807 5.948432050002484 -19.26999999999957
    vertex 44.380169266088046 9.327247283442148 -20.983037221364768
    vertex 44.380169266088046 8.848432050002486 -20.919999999999543
  endloop
endfacet
facet normal -1.0 0.0 0.0
  outer loop
    vertex 44.38016926608807 5.948432050002484 -19.26999999999957
    vertex 44.380169266088046 8.848432050002486 -20.919999999999543
    vertex 44.380169266088046 8.369616816562823 -20.98303722136481
  endloop
endfacet
facet normal -1.0 0.0 0.0
  outer loop
    vertex 44.38016926608807 5.948432050002484 -19.26999999999957
    vertex 44.380169266088046 8.369616816562823 -20.98303722136481
    vertex 44.380169266088046 7.923432050002485 -21.16785300299838
  endloop
endfacet
facet normal -1.0 0.0 0.0
  outer loop
    vertex 44.38016926608807 5.948432050002484 -19.26999999999957
    vertex 44.380169266088046 7.923432050002485 -21.16785300299838
    vertex 44.380169266088046 7.5402845048073734 -21.461852454804475
  endloop
endfacet
facet normal -1.0 0.0 0.0
  outer loop
    vertex 44.38016926608807 5.948432050002484 -19.26999999999957
    vertex 44.380169266088046 7.5402845048073734 -21.461852454804475
    vertex 44.380169266088046 7.246285053001276 -21.84499999999959
  endloop
endfacet
facet normal -1.0 0.0 0.0
  outer loop
    vertex 44.38016926608807 5.948432050002484 -19.26999999999957
    vertex 44.380169266088046 7.246285053001276 -21.84499999999959
    vertex 44.380169266088046 7.0614692713677005 -22.291184766559923
  endloop
endfacet
facet normal -1.0 0.0 0.0
  outer loop
    vertex 44.38016926608807 5.948432050002484 -19.26999999999957
    vertex 44.380169266088046 7.0614692713677005 -22.291184766559923
    vertex 44.380169266088046 6.998432050002477 -22.769999999999587
  endloop
endfacet
facet normal -9.724022353613419e-16 1.0 -1.812835595923657e-15
  outer loop
    vertex 44.38016926608807 5.948432050002456 -26.069999999999474
    vertex 38.580169266088056 5.948432050002479 -19.26999999999957
    vertex 44.38016926608807 5.948432050002484 -19.26999999999957
  endloop
endfacet
facet normal -9.724022353613419e-16 1.0 -1.812835595923657e-15
  outer loop
    vertex 38.580169266088056 5.948432050002479 -19.26999999999957
    vertex 44.38016926608807 5.948432050002456 -26.069999999999474
    vertex 38.580169266088056 5.948432050002451 -26.069999999999474
  endloop
endfacet
facet normal 1.0 0.0 0.0
  outer loop
    vertex 38.580169266088056 5.948432050002479 -19.26999999999957
    vertex 38.580169266088056 11.748432050002478 -26.069999999999567
    vertex 38.580169266088056 11.748432050002481 -19.269999999999573
  endloop
endfacet
facet normal 1.0 0.0 0.0
  outer loop
    vertex 38.580169266088056 11.748432050002478 -26.069999999999567
    vertex 38.580169266088056 5.948432050002479 -19.26999999999957
    vertex 38.580169266088056 5.948432050002451 -26.069999999999474
  endloop
endfacet
facet normal 1.0 0.0 0.0
  outer loop
    vertex 51.98016926608806 12.048432050002482 -19.269999999999573
    vertex 51.98016926608806 10.635394828637262 -22.291184766559923
    vertex 51.98016926608806 10.698432050002475 -22.76999999999959
  endloop
endfacet
facet normal 1.0 0.0 0.0
  outer loop
    vertex 51.98016926608806 10.635394828637262 -22.291184766559923
    vertex 51.98016926608806 12.048432050002482 -19.269999999999573
    vertex 51.98016926608806 10.450579047003696 -21.844999999999587
  endloop
endfacet
facet normal 1.0 0.0 0.0
  outer loop
    vertex 51.98016926608806 10.450579047003696 -21.844999999999587
    vertex 51.98016926608806 12.048432050002482 -19.269999999999573
    vertex 51.98016926608806 10.156579595197599 -21.461852454804475
  endloop
endfacet
facet normal 1.0 0.0 0.0
  outer loop
    vertex 51.98016926608806 10.156579595197599 -21.461852454804475
    vertex 51.98016926608806 12.048432050002482 -19.269999999999573
    vertex 51.98016926608806 9.773432050002484 -21.16785300299833
  endloop
endfacet
facet normal 1.0 0.0 0.0
  outer loop
    vertex 51.98016926608806 9.773432050002484 -21.16785300299833
    vertex 51.98016926608806 12.048432050002482 -19.269999999999573
    vertex 51.98016926608806 5.648432050002457 -19.269999999999534
  endloop
endfacet
facet normal 1.0 0.0 0.0
  outer loop
    vertex 51.98016926608806 9.773432050002484 -21.16785300299833
    vertex 51.98016926608806 5.648432050002457 -19.269999999999534
    vertex 51.98016926608806 9.327247283442148 -20.983037221364768
  endloop
endfacet
facet normal 1.0 0.0 0.0
  outer loop
    vertex 51.98016926608806 9.327247283442148 -20.983037221364768
    vertex 51.98016926608806 5.648432050002457 -19.269999999999534
    vertex 51.98016926608806 8.848432050002486 -20.919999999999543
  endloop
endfacet
facet normal 1.0 0.0 0.0
  outer loop
    vertex 51.98016926608806 8.848432050002486 -20.919999999999543
    vertex 51.98016926608806 5.648432050002457 -19.269999999999534
    vertex 51.98016926608806 8.369616816562823 -20.98303722136481
  endloop
endfacet
facet normal 1.0 0.0 0.0
  outer loop
    vertex 51.98016926608806 8.369616816562823 -20.98303722136481
    vertex 51.98016926608806 5.648432050002457 -19.269999999999534
    vertex 51.98016926608806 7.923432050002485 -21.16785300299838
  endloop
endfacet
facet normal 1.0 0.0 0.0
  outer loop
    vertex 51.98016926608806 7.923432050002485 -21.16785300299838
    vertex 51.98016926608806 5.648432050002457 -19.269999999999534
    vertex 51.98016926608806 7.5402845048073734 -21.461852454804475
  endloop
endfacet
facet normal 1.0 0.0 0.0
  outer loop
    vertex 51.98016926608806 7.5402845048073734 -21.461852454804475
    vertex 51.98016926608806 5.648432050002457 -19.269999999999534
    vertex 51.98016926608806 7.246285053001276 -21.84499999999959
  endloop
endfacet
facet normal 1.0 0.0 0.0
  outer loop
    vertex 51.98016926608806 7.246285053001276 -21.84499999999959
    vertex 51.98016926608806 5.648432050002457 -19.269999999999534
    vertex 51.98016926608806 7.0614692713677005 -22.291184766559923
  endloop
endfacet
facet normal 1.0 0.0 0.0
  outer loop
    vertex 51.98016926608806 7.0614692713677005 -22.291184766559923
    vertex 51.98016926608806 5.648432050002457 -19.269999999999534
    vertex 51.98016926608806 6.998432050002477 -22.769999999999587
  endloop
endfacet
facet normal 1.0 0.0 0.0
  outer loop
    vertex 51.98016926608806 6.998432050002477 -22.769999999999587
    vertex 51.98016926608806 5.648432050002457 -19.269999999999534
    vertex 51.98016926608806 5.648432050002455 -26.06999999999956
  endloop
endfacet
facet normal 1.0 0.0 0.0
  outer loop
    vertex 51.98016926608806 12.048432050002482 -26.06999999999957
    vertex 51.98016926608806 9.327247283442151 -24.55696277863437
    vertex 51.98016926608806 5.648432050002455 -26.06999999999956
  endloop
endfacet
facet normal 1.0 0.0 0.0
  outer loop
    vertex 51.98016926608806 9.327247283442151 -24.55696277863437
    vertex 51.98016926608806 12.048432050002482 -26.06999999999957
    vertex 51.98016926608806 9.773432050002487 -24.372146997000804
  endloop
endfacet
facet normal 1.0 0.0 0.0
  outer loop
    vertex 51.98016926608806 9.773432050002487 -24.372146997000804
    vertex 51.98016926608806 12.048432050002482 -26.06999999999957
    vertex 51.98016926608806 10.156579595197595 -24.078147545194703
  endloop
endfacet
facet normal 1.0 0.0 0.0
  outer loop
    vertex 51.98016926608806 10.156579595197595 -24.078147545194703
    vertex 51.98016926608806 12.048432050002482 -26.06999999999957
    vertex 51.98016926608806 10.450579047003684 -23.694999999999588
  endloop
endfacet
facet normal 1.0 0.0 0.0
  outer loop
    vertex 51.98016926608806 10.450579047003684 -23.694999999999588
    vertex 51.98016926608806 12.048432050002482 -26.06999999999957
    vertex 51.98016926608806 10.635394828637262 -23.24881523343925
  endloop
endfacet
facet normal 1.0 0.0 0.0
  outer loop
    vertex 51.98016926608806 10.635394828637262 -23.24881523343925
    vertex 51.98016926608806 12.048432050002482 -26.06999999999957
    vertex 51.98016926608806 12.048432050002482 -19.269999999999573
  endloop
endfacet
facet normal 1.0 0.0 0.0
  outer loop
    vertex 51.98016926608806 10.635394828637262 -23.24881523343925
    vertex 51.98016926608806 12.048432050002482 -19.269999999999573
    vertex 51.98016926608806 10.698432050002475 -22.76999999999959
  endloop
endfacet
facet normal 1.0 0.0 0.0
  outer loop
    vertex 51.98016926608806 5.648432050002455 -26.06999999999956
    vertex 51.98016926608806 9.327247283442151 -24.55696277863437
    vertex 51.98016926608806 8.848432050002486 -24.61999999999955
  endloop
endfacet
facet normal 1.0 0.0 0.0
  outer loop
    vertex 51.98016926608806 5.648432050002455 -26.06999999999956
    vertex 51.98016926608806 8.848432050002486 -24.61999999999955
    vertex 51.98016926608806 8.369616816562823 -24.556962778634375
  endloop
endfacet
facet normal 1.0 0.0 0.0
  outer loop
    vertex 51.98016926608806 5.648432050002455 -26.06999999999956
    vertex 51.98016926608806 8.369616816562823 -24.556962778634375
    vertex 51.98016926608806 7.9234320500024875 -24.372146997000808
  endloop
endfacet
facet normal 1.0 0.0 0.0
  outer loop
    vertex 51.98016926608806 5.648432050002455 -26.06999999999956
    vertex 51.98016926608806 7.9234320500024875 -24.372146997000808
    vertex 51.98016926608806 7.540284504807369 -24.078147545194703
  endloop
endfacet
facet normal 1.0 0.0 0.0
  outer loop
    vertex 51.98016926608806 5.648432050002455 -26.06999999999956
    vertex 51.98016926608806 7.540284504807369 -24.078147545194703
    vertex 51.98016926608806 7.246285053001276 -23.694999999999588
  endloop
endfacet
facet normal 1.0 0.0 0.0
  outer loop
    vertex 51.98016926608806 5.648432050002455 -26.06999999999956
    vertex 51.98016926608806 7.246285053001276 -23.694999999999588
    vertex 51.98016926608806 7.0614692713677005 -23.24881523343925
  endloop
endfacet
facet normal 1.0 0.0 0.0
  outer loop
    vertex 51.98016926608806 5.648432050002455 -26.06999999999956
    vertex 51.98016926608806 7.0614692713677005 -23.24881523343925
    vertex 51.98016926608806 6.998432050002477 -22.769999999999587
  endloop
endfacet
facet normal -1.0326192798398067e-15 1.0 1.8507010285909454e-15
  outer loop
    vertex 50.48016926608806 13.548432050002486 -26.06999999999957
    vertex 36.78016926608805 13.548432050002456 -19.269999999999573
    vertex 50.48016926608806 13.548432050002482 -19.269999999999573
  endloop
endfacet
facet normal -1.0326192798398067e-15 1.0 1.8507010285909454e-15
  outer loop
    vertex 36.78016926608805 13.548432050002456 -19.269999999999573
    vertex 50.48016926608806 13.548432050002486 -26.06999999999957
    vertex 36.78016926608805 13.54843205000248 -24.269999999999577
  endloop
endfacet
facet normal -1.0326192798398067e-15 1.0 1.8507010285909454e-15
  outer loop
    vertex 36.78016926608805 13.54843205000248 -24.269999999999577
    vertex 50.48016926608806 13.548432050002486 -26.06999999999957
    vertex 36.78016926608805 13.54843205000248 -26.06999999999957
  endloop
endfacet
facet normal -1.0 0.0 0.0
  outer loop
    vertex 21.380169266088057 2.1484320500024716 -24.26999999999957
    vertex 21.380169266088057 15.548432050002457 -19.269999999999555
    vertex 21.380169266088057 15.548432050002477 -24.269999999999577
  endloop
endfacet
facet normal -1.0 0.0 0.0
  outer loop
    vertex 21.380169266088057 15.548432050002457 -19.269999999999555
    vertex 21.380169266088057 2.1484320500024716 -24.26999999999957
    vertex 21.380169266088057 2.1484320500024787 -19.269999999999566
  endloop
endfacet
facet normal -4.906269665372369e-16 2.1258170509515454e-15 1.0
  outer loop
    vertex 36.78016926608805 4.1484320500024845 -19.269999999999527
    vertex 38.580169266088056 5.948432050002479 -19.26999999999957
    vertex 36.78016926608805 13.548432050002456 -19.269999999999573
  endloop
endfacet
facet normal -4.906269665372369e-16 2.1258170509515454e-15 1.0
  outer loop
    vertex 38.580169266088056 5.948432050002479 -19.26999999999957
    vertex 36.78016926608805 4.1484320500024845 -19.269999999999527
    vertex 50.48016926608806 4.1484320500024605 -19.26999999999953
  endloop
endfacet
facet normal -4.906269665372369e-16 2.1258170509515454e-15 1.0
  outer loop
    vertex 38.580169266088056 5.948432050002479 -19.26999999999957
    vertex 50.48016926608806 4.1484320500024605 -19.26999999999953
    vertex 44.38016926608807 5.948432050002484 -19.26999999999957
  endloop
endfacet
facet normal -4.906269665372369e-16 2.1258170509515454e-15 1.0
  outer loop
    vertex 44.38016926608807 5.948432050002484 -19.26999999999957
    vertex 50.48016926608806 4.1484320500024605 -19.26999999999953
    vertex 46.78016926608807 5.5184320500024855 -19.269999999999566
  endloop
endfacet
facet normal -4.906269665372369e-16 2.1258170509515454e-15 1.0
  outer loop
    vertex 44.38016926608807 5.948432050002484 -19.26999999999957
    vertex 46.78016926608807 5.5184320500024855 -19.269999999999566
    vertex 44.38016926608807 11.748432050002485 -19.269999999999573
  endloop
endfacet
facet normal -4.906269665372369e-16 2.1258170509515454e-15 1.0
  outer loop
    vertex 46.78016926608807 5.5184320500024855 -19.269999999999566
    vertex 50.48016926608806 4.1484320500024605 -19.26999999999953
    vertex 49.58016926608807 5.5184320500024855 -19.269999999999566
  endloop
endfacet
facet normal -4.906269665372369e-16 2.1258170509515454e-15 1.0
  outer loop
    vertex 49.58016926608807 5.5184320500024855 -19.269999999999566
    vertex 50.48016926608806 4.1484320500024605 -19.26999999999953
    vertex 49.58016926608807 12.178432050002487 -19.26999999999957
  endloop
endfacet
facet normal -4.906269665372369e-16 2.1258170509515454e-15 1.0
  outer loop
    vertex 36.78016926608805 13.548432050002456 -19.269999999999573
    vertex 38.580169266088056 11.748432050002481 -19.269999999999573
    vertex 50.48016926608806 13.548432050002482 -19.269999999999573
  endloop
endfacet
facet normal -4.906269665372369e-16 2.1258170509515454e-15 1.0
  outer loop
    vertex 38.580169266088056 11.748432050002481 -19.269999999999573
    vertex 36.78016926608805 13.548432050002456 -19.269999999999573
    vertex 38.580169266088056 5.948432050002479 -19.26999999999957
  endloop
endfacet
facet normal -4.906269665372369e-16 2.1258170509515454e-15 1.0
  outer loop
    vertex 50.48016926608806 13.548432050002482 -19.269999999999573
    vertex 38.580169266088056 11.748432050002481 -19.269999999999573
    vertex 44.38016926608807 11.748432050002485 -19.269999999999573
  endloop
endfacet
facet normal -4.906269665372369e-16 2.1258170509515454e-15 1.0
  outer loop
    vertex 50.48016926608806 13.548432050002482 -19.269999999999573
    vertex 44.38016926608807 11.748432050002485 -19.269999999999573
    vertex 46.78016926608807 12.178432050002487 -19.26999999999957
  endloop
endfacet
facet normal -4.906269665372369e-16 2.1258170509515454e-15 1.0
  outer loop
    vertex 46.78016926608807 12.178432050002487 -19.26999999999957
    vertex 44.38016926608807 11.748432050002485 -19.269999999999573
    vertex 46.78016926608807 5.5184320500024855 -19.269999999999566
  endloop
endfacet
facet normal -4.906269665372369e-16 2.1258170509515454e-15 1.0
  outer loop
    vertex 50.48016926608806 13.548432050002482 -19.269999999999573
    vertex 46.78016926608807 12.178432050002487 -19.26999999999957
    vertex 49.58016926608807 12.178432050002487 -19.26999999999957
  endloop
endfacet
facet normal -4.906269665372369e-16 2.1258170509515454e-15 1.0
  outer loop
    vertex 50.48016926608806 13.548432050002482 -19.269999999999573
    vertex 49.58016926608807 12.178432050002487 -19.26999999999957
    vertex 50.48016926608806 4.1484320500024605 -19.26999999999953
  endloop
endfacet
facet normal -4.906269665372369e-16 2.1258170509515454e-15 1.0
  outer loop
    vertex 50.48016926608806 13.548432050002482 -19.269999999999573
    vertex 50.48016926608806 4.1484320500024605 -19.26999999999953
    vertex 50.868397833741845 4.199543310568858 -19.26999999999953
  endloop
endfacet
facet normal -4.906269665372369e-16 2.1258170509515454e-15 1.0
  outer loop
    vertex 50.48016926608806 13.548432050002482 -19.269999999999573
    vertex 50.868397833741845 4.199543310568858 -19.26999999999953
    vertex 50.868397833741845 13.497320789436083 -19.269999999999573
  endloop
endfacet
facet normal -4.906269665372369e-16 2.1258170509515454e-15 1.0
  outer loop
    vertex 50.868397833741845 13.497320789436083 -19.269999999999573
    vertex 50.868397833741845 4.199543310568858 -19.26999999999953
    vertex 51.23016926608806 4.3493939443258025 -19.26999999999953
  endloop
endfacet
facet normal -4.906269665372369e-16 2.1258170509515454e-15 1.0
  outer loop
    vertex 50.868397833741845 13.497320789436083 -19.269999999999573
    vertex 51.23016926608806 4.3493939443258025 -19.26999999999953
    vertex 51.23016926608806 13.347470155679137 -19.269999999999573
  endloop
endfacet
facet normal -4.906269665372369e-16 2.1258170509515454e-15 1.0
  outer loop
    vertex 51.23016926608806 13.347470155679137 -19.269999999999573
    vertex 51.23016926608806 4.3493939443258025 -19.26999999999953
    vertex 51.540829437867885 4.587771878222639 -19.269999999999534
  endloop
endfacet
facet normal -4.906269665372369e-16 2.1258170509515454e-15 1.0
  outer loop
    vertex 51.23016926608806 13.347470155679137 -19.269999999999573
    vertex 51.540829437867885 4.587771878222639 -19.269999999999534
    vertex 51.540829437867885 13.109092221782301 -19.269999999999573
  endloop
endfacet
facet normal -4.906269665372369e-16 2.1258170509515454e-15 1.0
  outer loop
    vertex 51.540829437867885 13.109092221782301 -19.269999999999573
    vertex 51.540829437867885 4.587771878222639 -19.269999999999534
    vertex 51.77920737176471 4.89843205000246 -19.269999999999534
  endloop
endfacet
facet normal -4.906269665372369e-16 2.1258170509515454e-15 1.0
  outer loop
    vertex 51.540829437867885 13.109092221782301 -19.269999999999573
    vertex 51.77920737176471 4.89843205000246 -19.269999999999534
    vertex 51.77920737176471 12.798432050002479 -19.269999999999573
  endloop
endfacet
facet normal -4.906269665372369e-16 2.1258170509515454e-15 1.0
  outer loop
    vertex 51.77920737176471 12.798432050002479 -19.269999999999573
    vertex 51.77920737176471 4.89843205000246 -19.269999999999534
    vertex 51.92905800552167 5.260203482348678 -19.269999999999534
  endloop
endfacet
facet normal -4.906269665372369e-16 2.1258170509515454e-15 1.0
  outer loop
    vertex 51.77920737176471 12.798432050002479 -19.269999999999573
    vertex 51.92905800552167 5.260203482348678 -19.269999999999534
    vertex 51.92905800552167 12.436660617656264 -19.269999999999573
  endloop
endfacet
facet normal -4.906269665372369e-16 2.1258170509515454e-15 1.0
  outer loop
    vertex 51.92905800552167 12.436660617656264 -19.269999999999573
    vertex 51.92905800552167 5.260203482348678 -19.269999999999534
    vertex 51.98016926608806 5.648432050002457 -19.269999999999534
  endloop
endfacet
facet normal -4.906269665372369e-16 2.1258170509515454e-15 1.0
  outer loop
    vertex 51.92905800552167 12.436660617656264 -19.269999999999573
    vertex 51.98016926608806 5.648432050002457 -19.269999999999534
    vertex 51.98016926608806 12.048432050002482 -19.269999999999573
  endloop
endfacet
facet normal -4.906269665372369e-16 2.1258170509515454e-15 1.0
  outer loop
    vertex 36.78016926608805 2.148432050002487 -19.269999999999566
    vertex 21.380169266088057 15.548432050002457 -19.269999999999555
    vertex 21.380169266088057 2.1484320500024787 -19.269999999999566
  endloop
endfacet
facet normal -4.906269665372369e-16 2.1258170509515454e-15 1.0
  outer loop
    vertex 21.380169266088057 15.548432050002457 -19.269999999999555
    vertex 36.78016926608805 2.148432050002487 -19.269999999999566
    vertex 36.78016926608805 15.548432050002463 -19.269999999999555
  endloop
endfacet
facet normal -4.906269665372369e-16 2.1258170509515454e-15 1.0
  outer loop
    vertex 36.78016926608805 15.548432050002463 -19.269999999999555
    vertex 36.78016926608805 2.148432050002487 -19.269999999999566
    vertex 36.78016926608805 4.1484320500024845 -19.269999999999527
  endloop
endfacet
facet normal -4.906269665372369e-16 2.1258170509515454e-15 1.0
  outer loop
    vertex 36.78016926608805 15.548432050002463 -19.269999999999555
    vertex 36.78016926608805 4.1484320500024845 -19.269999999999527
    vertex 36.78016926608805 13.548432050002456 -19.269999999999573
  endloop
endfacet
facet normal 6.780919501324902e-18 -6.47669614183824e-16 -1.0
  outer loop
    vertex 36.78016926608805 13.54843205000248 -26.06999999999957
    vertex 38.580169266088056 11.748432050002478 -26.069999999999567
    vertex 36.78016926608805 4.148432050002457 -26.069999999999567
  endloop
endfacet
facet normal 6.780919501324902e-18 -6.47669614183824e-16 -1.0
  outer loop
    vertex 38.580169266088056 11.748432050002478 -26.069999999999567
    vertex 36.78016926608805 13.54843205000248 -26.06999999999957
    vertex 50.48016926608806 13.548432050002486 -26.06999999999957
  endloop
endfacet
facet normal 6.780919501324902e-18 -6.47669614183824e-16 -1.0
  outer loop
    vertex 38.580169266088056 11.748432050002478 -26.069999999999567
    vertex 50.48016926608806 13.548432050002486 -26.06999999999957
    vertex 44.38016926608807 11.748432050002481 -26.069999999999567
  endloop
endfacet
facet normal 6.780919501324902e-18 -6.47669614183824e-16 -1.0
  outer loop
    vertex 44.38016926608807 11.748432050002481 -26.069999999999567
    vertex 50.48016926608806 13.548432050002486 -26.06999999999957
    vertex 46.78016926608807 12.178432050002483 -26.06999999999957
  endloop
endfacet
facet normal 6.780919501324902e-18 -6.47669614183824e-16 -1.0
  outer loop
    vertex 44.38016926608807 11.748432050002481 -26.069999999999567
    vertex 46.78016926608807 12.178432050002483 -26.06999999999957
    vertex 44.38016926608807 5.948432050002456 -26.069999999999474
  endloop
endfacet
facet normal 6.780919501324902e-18 -6.47669614183824e-16 -1.0
  outer loop
    vertex 46.78016926608807 12.178432050002483 -26.06999999999957
    vertex 50.48016926608806 13.548432050002486 -26.06999999999957
    vertex 49.58016926608807 12.178432050002483 -26.06999999999957
  endloop
endfacet
facet normal 6.780919501324902e-18 -6.47669614183824e-16 -1.0
  outer loop
    vertex 49.58016926608807 12.178432050002483 -26.06999999999957
    vertex 50.48016926608806 13.548432050002486 -26.06999999999957
    vertex 49.58016926608807 5.518432050002457 -26.069999999999567
  endloop
endfacet
facet normal 6.780919501324902e-18 -6.47669614183824e-16 -1.0
  outer loop
    vertex 36.78016926608805 4.148432050002457 -26.069999999999567
    vertex 38.580169266088056 5.948432050002451 -26.069999999999474
    vertex 50.48016926608806 4.14843205000246 -26.069999999999567
  endloop
endfacet
facet normal 6.780919501324902e-18 -6.47669614183824e-16 -1.0
  outer loop
    vertex 38.580169266088056 5.948432050002451 -26.069999999999474
    vertex 36.78016926608805 4.148432050002457 -26.069999999999567
    vertex 38.580169266088056 11.748432050002478 -26.069999999999567
  endloop
endfacet
facet normal 6.780919501324902e-18 -6.47669614183824e-16 -1.0
  outer loop
    vertex 50.48016926608806 4.14843205000246 -26.069999999999567
    vertex 38.580169266088056 5.948432050002451 -26.069999999999474
    vertex 44.38016926608807 5.948432050002456 -26.069999999999474
  endloop
endfacet
facet normal 6.780919501324902e-18 -6.47669614183824e-16 -1.0
  outer loop
    vertex 50.48016926608806 4.14843205000246 -26.069999999999567
    vertex 44.38016926608807 5.948432050002456 -26.069999999999474
    vertex 46.78016926608807 5.518432050002457 -26.069999999999567
  endloop
endfacet
facet normal 6.780919501324902e-18 -6.47669614183824e-16 -1.0
  outer loop
    vertex 46.78016926608807 5.518432050002457 -26.069999999999567
    vertex 44.38016926608807 5.948432050002456 -26.069999999999474
    vertex 46.78016926608807 12.178432050002483 -26.06999999999957
  endloop
endfacet
facet normal 6.780919501324902e-18 -6.47669614183824e-16 -1.0
  outer loop
    vertex 50.48016926608806 4.14843205000246 -26.069999999999567
    vertex 46.78016926608807 5.518432050002457 -26.069999999999567
    vertex 49.58016926608807 5.518432050002457 -26.069999999999567
  endloop
endfacet
facet normal 6.780919501324902e-18 -6.47669614183824e-16 -1.0
  outer loop
    vertex 50.48016926608806 4.14843205000246 -26.069999999999567
    vertex 49.58016926608807 5.518432050002457 -26.069999999999567
    vertex 50.48016926608806 13.548432050002486 -26.06999999999957
  endloop
endfacet
facet normal 6.780919501324902e-18 -6.47669614183824e-16 -1.0
  outer loop
    vertex 50.48016926608806 4.14843205000246 -26.069999999999567
    vertex 50.48016926608806 13.548432050002486 -26.06999999999957
    vertex 50.868397833741845 13.497320789436085 -26.06999999999957
  endloop
endfacet
facet normal 6.780919501324902e-18 -6.47669614183824e-16 -1.0
  outer loop
    vertex 50.48016926608806 4.14843205000246 -26.069999999999567
    vertex 50.868397833741845 13.497320789436085 -26.06999999999957
    vertex 50.868397833741845 4.199543310568857 -26.069999999999567
  endloop
endfacet
facet normal 6.780919501324902e-18 -6.47669614183824e-16 -1.0
  outer loop
    vertex 50.868397833741845 4.199543310568857 -26.069999999999567
    vertex 50.868397833741845 13.497320789436085 -26.06999999999957
    vertex 51.23016926608806 13.347470155679138 -26.06999999999957
  endloop
endfacet
facet normal 6.780919501324902e-18 -6.47669614183824e-16 -1.0
  outer loop
    vertex 50.868397833741845 4.199543310568857 -26.069999999999567
    vertex 51.23016926608806 13.347470155679138 -26.06999999999957
    vertex 51.23016926608806 4.349393944325801 -26.069999999999567
  endloop
endfacet
facet normal 6.780919501324902e-18 -6.47669614183824e-16 -1.0
  outer loop
    vertex 51.23016926608806 4.349393944325801 -26.069999999999567
    vertex 51.23016926608806 13.347470155679138 -26.06999999999957
    vertex 51.540829437867885 13.109092221782303 -26.06999999999957
  endloop
endfacet
facet normal 6.780919501324902e-18 -6.47669614183824e-16 -1.0
  outer loop
    vertex 51.23016926608806 4.349393944325801 -26.069999999999567
    vertex 51.540829437867885 13.109092221782303 -26.06999999999957
    vertex 51.540829437867885 4.587771878222637 -26.069999999999567
  endloop
endfacet
facet normal 6.780919501324902e-18 -6.47669614183824e-16 -1.0
  outer loop
    vertex 51.540829437867885 4.587771878222637 -26.069999999999567
    vertex 51.540829437867885 13.109092221782303 -26.06999999999957
    vertex 51.77920737176471 12.798432050002482 -26.06999999999957
  endloop
endfacet
facet normal 6.780919501324902e-18 -6.47669614183824e-16 -1.0
  outer loop
    vertex 51.540829437867885 4.587771878222637 -26.069999999999567
    vertex 51.77920737176471 12.798432050002482 -26.06999999999957
    vertex 51.77920737176471 4.898432050002458 -26.069999999999567
  endloop
endfacet
facet normal 6.780919501324902e-18 -6.47669614183824e-16 -1.0
  outer loop
    vertex 51.77920737176471 4.898432050002458 -26.069999999999567
    vertex 51.77920737176471 12.798432050002482 -26.06999999999957
    vertex 51.92905800552167 12.436660617656264 -26.06999999999957
  endloop
endfacet
facet normal 6.780919501324902e-18 -6.47669614183824e-16 -1.0
  outer loop
    vertex 51.77920737176471 4.898432050002458 -26.069999999999567
    vertex 51.92905800552167 12.436660617656264 -26.06999999999957
    vertex 51.92905800552167 5.260203482348676 -26.069999999999567
  endloop
endfacet
facet normal 6.780919501324902e-18 -6.47669614183824e-16 -1.0
  outer loop
    vertex 51.92905800552167 5.260203482348676 -26.069999999999567
    vertex 51.92905800552167 12.436660617656264 -26.06999999999957
    vertex 51.98016926608806 12.048432050002482 -26.06999999999957
  endloop
endfacet
facet normal 6.780919501324902e-18 -6.47669614183824e-16 -1.0
  outer loop
    vertex 51.92905800552167 5.260203482348676 -26.069999999999567
    vertex 51.98016926608806 12.048432050002482 -26.06999999999957
    vertex 51.98016926608806 5.648432050002455 -26.06999999999956
  endloop
endfacet
facet normal 1.0 0.0 0.0
  outer loop
    vertex 46.78016926608807 12.178432050002487 -19.26999999999957
    vertex 46.78016926608807 10.635394828637263 -22.29118476655993
    vertex 46.78016926608807 12.178432050002483 -26.06999999999957
  endloop
endfacet
facet normal 1.0 0.0 0.0
  outer loop
    vertex 46.78016926608807 10.635394828637263 -22.29118476655993
    vertex 46.78016926608807 12.178432050002487 -19.26999999999957
    vertex 46.78016926608807 10.450579047003698 -21.84499999999959
  endloop
endfacet
facet normal 1.0 0.0 0.0
  outer loop
    vertex 46.78016926608807 10.450579047003698 -21.84499999999959
    vertex 46.78016926608807 12.178432050002487 -19.26999999999957
    vertex 46.78016926608807 10.156579595197599 -21.461852454804475
  endloop
endfacet
facet normal 1.0 0.0 0.0
  outer loop
    vertex 46.78016926608807 10.156579595197599 -21.461852454804475
    vertex 46.78016926608807 12.178432050002487 -19.26999999999957
    vertex 46.78016926608807 9.773432050002478 -21.167853002998328
  endloop
endfacet
facet normal 1.0 0.0 0.0
  outer loop
    vertex 46.78016926608807 9.773432050002478 -21.167853002998328
    vertex 46.78016926608807 12.178432050002487 -19.26999999999957
    vertex 46.78016926608807 5.5184320500024855 -19.269999999999566
  endloop
endfacet
facet normal 1.0 0.0 0.0
  outer loop
    vertex 46.78016926608807 12.178432050002483 -26.06999999999957
    vertex 46.78016926608807 10.635394828637263 -22.29118476655993
    vertex 46.78016926608807 10.698432050002472 -22.76999999999959
  endloop
endfacet
facet normal 1.0 0.0 0.0
  outer loop
    vertex 46.78016926608807 9.773432050002478 -21.167853002998328
    vertex 46.78016926608807 5.5184320500024855 -19.269999999999566
    vertex 46.78016926608807 9.327247283442148 -20.983037221364768
  endloop
endfacet
facet normal 1.0 0.0 0.0
  outer loop
    vertex 46.78016926608807 9.327247283442148 -20.983037221364768
    vertex 46.78016926608807 5.5184320500024855 -19.269999999999566
    vertex 46.78016926608807 8.848432050002486 -20.919999999999543
  endloop
endfacet
facet normal 1.0 0.0 0.0
  outer loop
    vertex 46.78016926608807 8.848432050002486 -20.919999999999543
    vertex 46.78016926608807 5.5184320500024855 -19.269999999999566
    vertex 46.78016926608807 8.369616816562818 -20.983037221364818
  endloop
endfacet
facet normal 1.0 0.0 0.0
  outer loop
    vertex 46.78016926608807 8.369616816562818 -20.983037221364818
    vertex 46.78016926608807 5.5184320500024855 -19.269999999999566
    vertex 46.78016926608807 7.923432050002482 -21.16785300299838
  endloop
endfacet
facet normal 1.0 0.0 0.0
  outer loop
    vertex 46.78016926608807 7.923432050002482 -21.16785300299838
    vertex 46.78016926608807 5.5184320500024855 -19.269999999999566
    vertex 46.78016926608807 7.540284504807367 -21.461852454804482
  endloop
endfacet
facet normal 1.0 0.0 0.0
  outer loop
    vertex 46.78016926608807 7.540284504807367 -21.461852454804482
    vertex 46.78016926608807 5.5184320500024855 -19.269999999999566
    vertex 46.78016926608807 7.246285053001273 -21.84499999999959
  endloop
endfacet
facet normal 1.0 0.0 0.0
  outer loop
    vertex 46.78016926608807 7.246285053001273 -21.84499999999959
    vertex 46.78016926608807 5.5184320500024855 -19.269999999999566
    vertex 46.78016926608807 7.061469271367698 -22.29118476655993
  endloop
endfacet
facet normal 1.0 0.0 0.0
  outer loop
    vertex 46.78016926608807 7.061469271367698 -22.29118476655993
    vertex 46.78016926608807 5.5184320500024855 -19.269999999999566
    vertex 46.78016926608807 6.998432050002477 -22.769999999999587
  endloop
endfacet
facet normal 1.0 0.0 0.0
  outer loop
    vertex 46.78016926608807 12.178432050002483 -26.06999999999957
    vertex 46.78016926608807 9.327247283442155 -24.55696277863437
    vertex 46.78016926608807 5.518432050002457 -26.069999999999567
  endloop
endfacet
facet normal 1.0 0.0 0.0
  outer loop
    vertex 46.78016926608807 9.327247283442155 -24.55696277863437
    vertex 46.78016926608807 12.178432050002483 -26.06999999999957
    vertex 46.78016926608807 9.773432050002482 -24.372146997000804
  endloop
endfacet
facet normal 1.0 0.0 0.0
  outer loop
    vertex 46.78016926608807 9.773432050002482 -24.372146997000804
    vertex 46.78016926608807 12.178432050002483 -26.06999999999957
    vertex 46.78016926608807 10.156579595197591 -24.078147545194703
  endloop
endfacet
facet normal 1.0 0.0 0.0
  outer loop
    vertex 46.78016926608807 10.156579595197591 -24.078147545194703
    vertex 46.78016926608807 12.178432050002483 -26.06999999999957
    vertex 46.78016926608807 10.450579047003687 -23.694999999999588
  endloop
endfacet
facet normal 1.0 0.0 0.0
  outer loop
    vertex 46.78016926608807 10.450579047003687 -23.694999999999588
    vertex 46.78016926608807 12.178432050002483 -26.06999999999957
    vertex 46.78016926608807 10.635394828637263 -23.24881523343925
  endloop
endfacet
facet normal 1.0 0.0 0.0
  outer loop
    vertex 46.78016926608807 10.635394828637263 -23.24881523343925
    vertex 46.78016926608807 12.178432050002483 -26.06999999999957
    vertex 46.78016926608807 10.698432050002472 -22.76999999999959
  endloop
endfacet
facet normal 1.0 0.0 0.0
  outer loop
    vertex 46.78016926608807 5.518432050002457 -26.069999999999567
    vertex 46.78016926608807 9.327247283442155 -24.55696277863437
    vertex 46.78016926608807 8.848432050002486 -24.61999999999955
  endloop
endfacet
facet normal 1.0 0.0 0.0
  outer loop
    vertex 46.78016926608807 5.518432050002457 -26.069999999999567
    vertex 46.78016926608807 8.848432050002486 -24.61999999999955
    vertex 46.78016926608807 8.369616816562827 -24.556962778634375
  endloop
endfacet
facet normal 1.0 0.0 0.0
  outer loop
    vertex 46.78016926608807 5.518432050002457 -26.069999999999567
    vertex 46.78016926608807 8.369616816562827 -24.556962778634375
    vertex 46.78016926608807 7.923432050002482 -24.372146997000808
  endloop
endfacet
facet normal 1.0 0.0 0.0
  outer loop
    vertex 46.78016926608807 5.518432050002457 -26.069999999999567
    vertex 46.78016926608807 7.923432050002482 -24.372146997000808
    vertex 46.78016926608807 7.540284504807374 -24.078147545194703
  endloop
endfacet
facet normal 1.0 0.0 0.0
  outer loop
    vertex 46.78016926608807 5.518432050002457 -26.069999999999567
    vertex 46.78016926608807 7.540284504807374 -24.078147545194703
    vertex 46.78016926608807 7.246285053001282 -23.69499999999959
  endloop
endfacet
facet normal 1.0 0.0 0.0
  outer loop
    vertex 46.78016926608807 5.518432050002457 -26.069999999999567
    vertex 46.78016926608807 7.246285053001282 -23.69499999999959
    vertex 46.78016926608807 7.061469271367703 -23.248815233439252
  endloop
endfacet
facet normal 1.0 0.0 0.0
  outer loop
    vertex 46.78016926608807 5.518432050002457 -26.069999999999567
    vertex 46.78016926608807 7.061469271367703 -23.248815233439252
    vertex 46.78016926608807 6.998432050002477 -22.769999999999587
  endloop
endfacet
facet normal 1.0 0.0 0.0
  outer loop
    vertex 46.78016926608807 5.518432050002457 -26.069999999999567
    vertex 46.78016926608807 6.998432050002477 -22.769999999999587
    vertex 46.78016926608807 5.5184320500024855 -19.269999999999566
  endloop
endfacet
facet normal 0.0 -1.0 6.220514299738008e-16
  outer loop
    vertex 46.78016926608807 12.178432050002483 -26.06999999999957
    vertex 49.58016926608807 12.178432050002487 -19.26999999999957
    vertex 46.78016926608807 12.178432050002487 -19.26999999999957
  endloop
endfacet
facet normal 0.0 -1.0 6.220514299738008e-16
  outer loop
    vertex 49.58016926608807 12.178432050002487 -19.26999999999957
    vertex 46.78016926608807 12.178432050002483 -26.06999999999957
    vertex 49.58016926608807 12.178432050002483 -26.06999999999957
  endloop
endfacet
facet normal -1.0 0.0 0.0
  outer loop
    vertex 49.58016926608807 12.178432050002483 -26.06999999999957
    vertex 49.58016926608807 10.635394828637263 -23.24881523343925
    vertex 49.58016926608807 10.698432050002472 -22.76999999999959
  endloop
endfacet
facet normal -1.0 0.0 0.0
  outer loop
    vertex 49.58016926608807 10.635394828637263 -23.24881523343925
    vertex 49.58016926608807 12.178432050002483 -26.06999999999957
    vertex 49.58016926608807 10.450579047003687 -23.694999999999588
  endloop
endfacet
facet normal -1.0 0.0 0.0
  outer loop
    vertex 49.58016926608807 10.450579047003687 -23.694999999999588
    vertex 49.58016926608807 12.178432050002483 -26.06999999999957
    vertex 49.58016926608807 10.156579595197591 -24.078147545194703
  endloop
endfacet
facet normal -1.0 0.0 0.0
  outer loop
    vertex 49.58016926608807 10.156579595197591 -24.078147545194703
    vertex 49.58016926608807 12.178432050002483 -26.06999999999957
    vertex 49.58016926608807 9.773432050002482 -24.372146997000804
  endloop
endfacet
facet normal -1.0 0.0 0.0
  outer loop
    vertex 49.58016926608807 9.773432050002482 -24.372146997000804
    vertex 49.58016926608807 12.178432050002483 -26.06999999999957
    vertex 49.58016926608807 9.327247283442155 -24.55696277863437
  endloop
endfacet
facet normal -1.0 0.0 0.0
  outer loop
    vertex 49.58016926608807 9.327247283442155 -24.55696277863437
    vertex 49.58016926608807 12.178432050002483 -26.06999999999957
    vertex 49.58016926608807 5.518432050002457 -26.069999999999567
  endloop
endfacet
facet normal -1.0 0.0 0.0
  outer loop
    vertex 49.58016926608807 9.327247283442155 -24.55696277863437
    vertex 49.58016926608807 5.518432050002457 -26.069999999999567
    vertex 49.58016926608807 8.848432050002486 -24.61999999999955
  endloop
endfacet
facet normal -1.0 0.0 0.0
  outer loop
    vertex 49.58016926608807 8.848432050002486 -24.61999999999955
    vertex 49.58016926608807 5.518432050002457 -26.069999999999567
    vertex 49.58016926608807 8.369616816562827 -24.556962778634375
  endloop
endfacet
facet normal -1.0 0.0 0.0
  outer loop
    vertex 49.58016926608807 8.369616816562827 -24.556962778634375
    vertex 49.58016926608807 5.518432050002457 -26.069999999999567
    vertex 49.58016926608807 7.923432050002482 -24.372146997000808
  endloop
endfacet
facet normal -1.0 0.0 0.0
  outer loop
    vertex 49.58016926608807 7.923432050002482 -24.372146997000808
    vertex 49.58016926608807 5.518432050002457 -26.069999999999567
    vertex 49.58016926608807 7.540284504807374 -24.078147545194703
  endloop
endfacet
facet normal -1.0 0.0 0.0
  outer loop
    vertex 49.58016926608807 7.540284504807374 -24.078147545194703
    vertex 49.58016926608807 5.518432050002457 -26.069999999999567
    vertex 49.58016926608807 7.246285053001282 -23.69499999999959
  endloop
endfacet
facet normal -1.0 0.0 0.0
  outer loop
    vertex 49.58016926608807 7.246285053001282 -23.69499999999959
    vertex 49.58016926608807 5.518432050002457 -26.069999999999567
    vertex 49.58016926608807 7.061469271367703 -23.248815233439252
  endloop
endfacet
facet normal -1.0 0.0 0.0
  outer loop
    vertex 49.58016926608807 7.061469271367703 -23.248815233439252
    vertex 49.58016926608807 5.518432050002457 -26.069999999999567
    vertex 49.58016926608807 6.998432050002477 -22.769999999999587
  endloop
endfacet
facet normal -1.0 0.0 0.0
  outer loop
    vertex 49.58016926608807 6.998432050002477 -22.769999999999587
    vertex 49.58016926608807 5.518432050002457 -26.069999999999567
    vertex 49.58016926608807 5.5184320500024855 -19.269999999999566
  endloop
endfacet
facet normal -1.0 0.0 0.0
  outer loop
    vertex 49.58016926608807 12.178432050002487 -19.26999999999957
    vertex 49.58016926608807 9.773432050002478 -21.167853002998328
    vertex 49.58016926608807 5.5184320500024855 -19.269999999999566
  endloop
endfacet
facet normal -1.0 0.0 0.0
  outer loop
    vertex 49.58016926608807 9.773432050002478 -21.167853002998328
    vertex 49.58016926608807 12.178432050002487 -19.26999999999957
    vertex 49.58016926608807 10.156579595197599 -21.461852454804475
  endloop
endfacet
facet normal -1.0 0.0 0.0
  outer loop
    vertex 49.58016926608807 10.156579595197599 -21.461852454804475
    vertex 49.58016926608807 12.178432050002487 -19.26999999999957
    vertex 49.58016926608807 10.450579047003698 -21.84499999999959
  endloop
endfacet
facet normal -1.0 0.0 0.0
  outer loop
    vertex 49.58016926608807 10.450579047003698 -21.84499999999959
    vertex 49.58016926608807 12.178432050002487 -19.26999999999957
    vertex 49.58016926608807 10.635394828637263 -22.29118476655993
  endloop
endfacet
facet normal -1.0 0.0 0.0
  outer loop
    vertex 49.58016926608807 10.635394828637263 -22.29118476655993
    vertex 49.58016926608807 12.178432050002487 -19.26999999999957
    vertex 49.58016926608807 12.178432050002483 -26.06999999999957
  endloop
endfacet
facet normal -1.0 0.0 0.0
  outer loop
    vertex 49.58016926608807 10.635394828637263 -22.29118476655993
    vertex 49.58016926608807 12.178432050002483 -26.06999999999957
    vertex 49.58016926608807 10.698432050002472 -22.76999999999959
  endloop
endfacet
facet normal -1.0 0.0 0.0
  outer loop
    vertex 49.58016926608807 5.5184320500024855 -19.269999999999566
    vertex 49.58016926608807 9.773432050002478 -21.167853002998328
    vertex 49.58016926608807 9.327247283442148 -20.983037221364768
  endloop
endfacet
facet normal -1.0 0.0 0.0
  outer loop
    vertex 49.58016926608807 5.5184320500024855 -19.269999999999566
    vertex 49.58016926608807 9.327247283442148 -20.983037221364768
    vertex 49.58016926608807 8.848432050002486 -20.919999999999543
  endloop
endfacet
facet normal -1.0 0.0 0.0
  outer loop
    vertex 49.58016926608807 5.5184320500024855 -19.269999999999566
    vertex 49.58016926608807 8.848432050002486 -20.919999999999543
    vertex 49.58016926608807 8.369616816562818 -20.983037221364818
  endloop
endfacet
facet normal -1.0 0.0 0.0
  outer loop
    vertex 49.58016926608807 5.5184320500024855 -19.269999999999566
    vertex 49.58016926608807 8.369616816562818 -20.983037221364818
    vertex 49.58016926608807 7.923432050002482 -21.16785300299838
  endloop
endfacet
facet normal -1.0 0.0 0.0
  outer loop
    vertex 49.58016926608807 5.5184320500024855 -19.269999999999566
    vertex 49.58016926608807 7.923432050002482 -21.16785300299838
    vertex 49.58016926608807 7.540284504807367 -21.461852454804482
  endloop
endfacet
facet normal -1.0 0.0 0.0
  outer loop
    vertex 49.58016926608807 5.5184320500024855 -19.269999999999566
    vertex 49.58016926608807 7.540284504807367 -21.461852454804482
    vertex 49.58016926608807 7.246285053001273 -21.84499999999959
  endloop
endfacet
facet normal -1.0 0.0 0.0
  outer loop
    vertex 49.58016926608807 5.5184320500024855 -19.269999999999566
    vertex 49.58016926608807 7.246285053001273 -21.84499999999959
    vertex 49.58016926608807 7.061469271367698 -22.29118476655993
  endloop
endfacet
facet normal -1.0 0.0 0.0
  outer loop
    vertex 49.58016926608807 5.5184320500024855 -19.269999999999566
    vertex 49.58016926608807 7.061469271367698 -22.29118476655993
    vertex 49.58016926608807 6.998432050002477 -22.769999999999587
  endloop
endfacet
facet normal 0.0 1.0 -3.5249581031848716e-15
  outer loop
    vertex 49.58016926608807 5.518432050002457 -26.069999999999567
    vertex 46.78016926608807 5.5184320500024855 -19.269999999999566
    vertex 49.58016926608807 5.5184320500024855 -19.269999999999566
  endloop
endfacet
facet normal 0.0 1.0 -3.5249581031848716e-15
  outer loop
    vertex 46.78016926608807 5.5184320500024855 -19.269999999999566
    vertex 49.58016926608807 5.518432050002457 -26.069999999999567
    vertex 46.78016926608807 5.518432050002457 -26.069999999999567
  endloop
endfacet
facet normal 2.3632683733694887e-16 -0.6087614290087676 -0.7933533402911991
  outer loop
    vertex 51.98016926608806 10.156579595197599 -21.461852454804475
    vertex 49.58016926608807 9.773432050002478 -21.167853002998328
    vertex 49.58016926608807 10.156579595197599 -21.461852454804475
  endloop
endfacet
facet normal 2.3632683733694887e-16 -0.6087614290087676 -0.7933533402911991
  outer loop
    vertex 49.58016926608807 9.773432050002478 -21.167853002998328
    vertex 51.98016926608806 10.156579595197599 -21.461852454804475
    vertex 51.98016926608806 9.773432050002484 -21.16785300299833
  endloop
endfacet
facet normal -8.958866033845061e-17 -0.38268343236508623 -0.9238795325112884
  outer loop
    vertex 51.98016926608806 9.773432050002484 -21.16785300299833
    vertex 49.58016926608807 9.327247283442148 -20.983037221364768
    vertex 49.58016926608807 9.773432050002478 -21.167853002998328
  endloop
endfacet
facet normal -8.958866033845061e-17 -0.38268343236508623 -0.9238795325112884
  outer loop
    vertex 49.58016926608807 9.327247283442148 -20.983037221364768
    vertex 51.98016926608806 9.773432050002484 -21.16785300299833
    vertex 51.98016926608806 9.327247283442148 -20.983037221364768
  endloop
endfacet
facet normal 0.0 -0.13052619222005252 -0.9914448613738103
  outer loop
    vertex 46.78016926608807 9.327247283442148 -20.983037221364768
    vertex 44.380169266088046 8.848432050002486 -20.919999999999543
    vertex 44.380169266088046 9.327247283442148 -20.983037221364768
  endloop
endfacet
facet normal 0.0 -0.13052619222005252 -0.9914448613738103
  outer loop
    vertex 44.380169266088046 8.848432050002486 -20.919999999999543
    vertex 46.78016926608807 9.327247283442148 -20.983037221364768
    vertex 46.78016926608807 8.848432050002486 -20.919999999999543
  endloop
endfacet
facet normal -1.0119019433864903e-15 0.13052619222012637 -0.9914448613738007
  outer loop
    vertex 46.78016926608807 8.848432050002486 -20.919999999999543
    vertex 44.380169266088046 8.369616816562823 -20.98303722136481
    vertex 44.380169266088046 8.848432050002486 -20.919999999999543
  endloop
endfacet
facet normal -1.0119019433864903e-15 0.13052619222012637 -0.9914448613738007
  outer loop
    vertex 44.380169266088046 8.369616816562823 -20.98303722136481
    vertex 46.78016926608807 8.848432050002486 -20.919999999999543
    vertex 46.78016926608807 8.369616816562818 -20.983037221364818
  endloop
endfacet
facet normal -4.11629829970787e-16 0.38268343236509067 -0.9238795325112865
  outer loop
    vertex 46.78016926608807 8.369616816562818 -20.983037221364818
    vertex 44.380169266088046 7.923432050002485 -21.16785300299838
    vertex 44.380169266088046 8.369616816562823 -20.98303722136481
  endloop
endfacet
facet normal -4.11629829970787e-16 0.38268343236509067 -0.9238795325112865
  outer loop
    vertex 44.380169266088046 7.923432050002485 -21.16785300299838
    vertex 46.78016926608807 8.369616816562818 -20.983037221364818
    vertex 46.78016926608807 7.923432050002482 -21.16785300299838
  endloop
endfacet
facet normal 1.4110525348761545e-16 0.6087614290087222 -0.7933533402912339
  outer loop
    vertex 46.78016926608807 7.923432050002482 -21.16785300299838
    vertex 44.380169266088046 7.5402845048073734 -21.461852454804475
    vertex 44.380169266088046 7.923432050002485 -21.16785300299838
  endloop
endfacet
facet normal 1.4110525348761545e-16 0.6087614290087222 -0.7933533402912339
  outer loop
    vertex 44.380169266088046 7.5402845048073734 -21.461852454804475
    vertex 46.78016926608807 7.923432050002482 -21.16785300299838
    vertex 46.78016926608807 7.540284504807367 -21.461852454804482
  endloop
endfacet
facet normal 6.847054843256298e-16 0.793353340291237 -0.6087614290087182
  outer loop
    vertex 46.78016926608807 7.540284504807367 -21.461852454804482
    vertex 44.380169266088046 7.246285053001276 -21.84499999999959
    vertex 44.380169266088046 7.5402845048073734 -21.461852454804475
  endloop
endfacet
facet normal 6.847054843256298e-16 0.793353340291237 -0.6087614290087182
  outer loop
    vertex 44.380169266088046 7.246285053001276 -21.84499999999959
    vertex 46.78016926608807 7.540284504807367 -21.461852454804482
    vertex 46.78016926608807 7.246285053001273 -21.84499999999959
  endloop
endfacet
facet normal 6.375020940496812e-16 0.9238795325112787 -0.38268343236510904
  outer loop
    vertex 46.78016926608807 7.061469271367698 -22.29118476655993
    vertex 44.380169266088046 7.246285053001276 -21.84499999999959
    vertex 46.78016926608807 7.246285053001273 -21.84499999999959
  endloop
endfacet
facet normal 6.375020940496812e-16 0.9238795325112787 -0.38268343236510904
  outer loop
    vertex 44.380169266088046 7.246285053001276 -21.84499999999959
    vertex 46.78016926608807 7.061469271367698 -22.29118476655993
    vertex 44.380169266088046 7.0614692713677005 -22.291184766559923
  endloop
endfacet
facet normal 4.2947056135343505e-16 0.9914448613738107 -0.13052619222005044
  outer loop
    vertex 46.78016926608807 7.061469271367698 -22.29118476655993
    vertex 44.380169266088046 6.998432050002477 -22.769999999999587
    vertex 44.380169266088046 7.0614692713677005 -22.291184766559923
  endloop
endfacet
facet normal 4.2947056135343505e-16 0.9914448613738107 -0.13052619222005044
  outer loop
    vertex 44.380169266088046 6.998432050002477 -22.769999999999587
    vertex 46.78016926608807 7.061469271367698 -22.29118476655993
    vertex 46.78016926608807 6.998432050002477 -22.769999999999587
  endloop
endfacet
facet normal -5.063472432494518e-16 0.9914448613738088 0.13052619222006365
  outer loop
    vertex 46.78016926608807 7.061469271367703 -23.248815233439252
    vertex 44.380169266088046 6.998432050002477 -22.769999999999587
    vertex 46.78016926608807 6.998432050002477 -22.769999999999587
  endloop
endfacet
facet normal -5.063472432494518e-16 0.9914448613738088 0.13052619222006365
  outer loop
    vertex 44.380169266088046 6.998432050002477 -22.769999999999587
    vertex 46.78016926608807 7.061469271367703 -23.248815233439252
    vertex 44.380169266088046 7.0614692713677005 -23.24881523343925
  endloop
endfacet
facet normal -9.529670478062446e-16 0.9238795325112822 0.3826834323651009
  outer loop
    vertex 46.78016926608807 7.061469271367703 -23.248815233439252
    vertex 44.380169266088046 7.246285053001276 -23.694999999999588
    vertex 44.380169266088046 7.0614692713677005 -23.24881523343925
  endloop
endfacet
facet normal -9.529670478062446e-16 0.9238795325112822 0.3826834323651009
  outer loop
    vertex 44.380169266088046 7.246285053001276 -23.694999999999588
    vertex 46.78016926608807 7.061469271367703 -23.248815233439252
    vertex 46.78016926608807 7.246285053001282 -23.69499999999959
  endloop
endfacet
facet normal -1.1423365383368765e-15 0.7933533402912398 0.6087614290087144
  outer loop
    vertex 46.78016926608807 7.246285053001282 -23.69499999999959
    vertex 44.380169266088046 7.540284504807369 -24.078147545194703
    vertex 44.380169266088046 7.246285053001276 -23.694999999999588
  endloop
endfacet
facet normal -1.1423365383368765e-15 0.7933533402912398 0.6087614290087144
  outer loop
    vertex 44.380169266088046 7.540284504807369 -24.078147545194703
    vertex 46.78016926608807 7.246285053001282 -23.69499999999959
    vertex 46.78016926608807 7.540284504807374 -24.078147545194703
  endloop
endfacet
facet normal 3.696343771369292e-18 0.6087614290087294 0.7933533402912284
  outer loop
    vertex 46.78016926608807 7.540284504807374 -24.078147545194703
    vertex 44.380169266088046 7.9234320500024875 -24.372146997000808
    vertex 44.380169266088046 7.540284504807369 -24.078147545194703
  endloop
endfacet
facet normal 3.696343771369292e-18 0.6087614290087294 0.7933533402912284
  outer loop
    vertex 44.380169266088046 7.9234320500024875 -24.372146997000808
    vertex 46.78016926608807 7.540284504807374 -24.078147545194703
    vertex 46.78016926608807 7.923432050002482 -24.372146997000808
  endloop
endfacet
facet normal -2.1628615882392212e-16 0.38268343236509356 0.9238795325112854
  outer loop
    vertex 51.98016926608806 7.9234320500024875 -24.372146997000808
    vertex 49.58016926608807 8.369616816562827 -24.556962778634375
    vertex 49.58016926608807 7.923432050002482 -24.372146997000808
  endloop
endfacet
facet normal -2.1628615882392212e-16 0.38268343236509356 0.9238795325112854
  outer loop
    vertex 49.58016926608807 8.369616816562827 -24.556962778634375
    vertex 51.98016926608806 7.9234320500024875 -24.372146997000808
    vertex 51.98016926608806 8.369616816562823 -24.556962778634375
  endloop
endfacet
facet normal -7.608413878364665e-17 0.1305261922199668 0.9914448613738216
  outer loop
    vertex 46.78016926608807 8.369616816562827 -24.556962778634375
    vertex 44.380169266088046 8.848432050002486 -24.61999999999955
    vertex 44.380169266088046 8.369616816562823 -24.556962778634375
  endloop
endfacet
facet normal -7.608413878364665e-17 0.1305261922199668 0.9914448613738216
  outer loop
    vertex 44.380169266088046 8.848432050002486 -24.61999999999955
    vertex 46.78016926608807 8.369616816562827 -24.556962778634375
    vertex 46.78016926608807 8.848432050002486 -24.61999999999955
  endloop
endfacet
facet normal 7.687668189597877e-17 -0.13052619221997103 0.991444861373821
  outer loop
    vertex 46.78016926608807 8.848432050002486 -24.61999999999955
    vertex 44.380169266088046 9.327247283442151 -24.55696277863437
    vertex 44.380169266088046 8.848432050002486 -24.61999999999955
  endloop
endfacet
facet normal 7.687668189597877e-17 -0.13052619221997103 0.991444861373821
  outer loop
    vertex 44.380169266088046 9.327247283442151 -24.55696277863437
    vertex 46.78016926608807 8.848432050002486 -24.61999999999955
    vertex 46.78016926608807 9.327247283442155 -24.55696277863437
  endloop
endfacet
facet normal -2.25391026861594e-16 -0.3826834323650996 0.9238795325112827
  outer loop
    vertex 46.78016926608807 9.327247283442155 -24.55696277863437
    vertex 44.380169266088046 9.773432050002487 -24.372146997000804
    vertex 44.380169266088046 9.327247283442151 -24.55696277863437
  endloop
endfacet
facet normal -2.25391026861594e-16 -0.3826834323650996 0.9238795325112827
  outer loop
    vertex 44.380169266088046 9.773432050002487 -24.372146997000804
    vertex 46.78016926608807 9.327247283442155 -24.55696277863437
    vertex 46.78016926608807 9.773432050002482 -24.372146997000804
  endloop
endfacet
facet normal -1.071939693697096e-15 -0.6087614290087302 0.7933533402912281
  outer loop
    vertex 46.78016926608807 9.773432050002482 -24.372146997000804
    vertex 44.380169266088046 10.156579595197595 -24.078147545194703
    vertex 44.380169266088046 9.773432050002487 -24.372146997000804
  endloop
endfacet
facet normal -1.071939693697096e-15 -0.6087614290087302 0.7933533402912281
  outer loop
    vertex 44.380169266088046 10.156579595197595 -24.078147545194703
    vertex 46.78016926608807 9.773432050002482 -24.372146997000804
    vertex 46.78016926608807 10.156579595197591 -24.078147545194703
  endloop
endfacet
facet normal 0.0 -0.7933533402912377 0.6087614290087173
  outer loop
    vertex 49.58016926608807 10.156579595197591 -24.078147545194703
    vertex 51.98016926608806 10.450579047003684 -23.694999999999588
    vertex 49.58016926608807 10.450579047003687 -23.694999999999588
  endloop
endfacet
facet normal 0.0 -0.7933533402912377 0.6087614290087173
  outer loop
    vertex 51.98016926608806 10.450579047003684 -23.694999999999588
    vertex 49.58016926608807 10.156579595197591 -24.078147545194703
    vertex 51.98016926608806 10.156579595197595 -24.078147545194703
  endloop
endfacet
facet normal 1.0854792917219226e-15 -0.9238795325112819 0.38268343236510205
  outer loop
    vertex 44.380169266088046 10.450579047003684 -23.694999999999588
    vertex 46.78016926608807 10.635394828637263 -23.24881523343925
    vertex 44.380169266088046 10.635394828637262 -23.24881523343925
  endloop
endfacet
facet normal 1.0854792917219226e-15 -0.9238795325112819 0.38268343236510205
  outer loop
    vertex 46.78016926608807 10.635394828637263 -23.24881523343925
    vertex 44.380169266088046 10.450579047003684 -23.694999999999588
    vertex 46.78016926608807 10.450579047003687 -23.694999999999588
  endloop
endfacet
facet normal 1.3869993841893732e-18 -0.9914448613738136 0.13052619222002748
  outer loop
    vertex 49.58016926608807 10.635394828637263 -23.24881523343925
    vertex 51.98016926608806 10.698432050002475 -22.76999999999959
    vertex 49.58016926608807 10.698432050002472 -22.76999999999959
  endloop
endfacet
facet normal 1.3869993841893732e-18 -0.9914448613738136 0.13052619222002748
  outer loop
    vertex 51.98016926608806 10.698432050002475 -22.76999999999959
    vertex 49.58016926608807 10.635394828637263 -23.24881523343925
    vertex 51.98016926608806 10.635394828637262 -23.24881523343925
  endloop
endfacet
facet normal 1.481989535811864e-16 -0.9914448613738138 -0.1305261922200267
  outer loop
    vertex 49.58016926608807 10.635394828637263 -22.29118476655993
    vertex 51.98016926608806 10.698432050002475 -22.76999999999959
    vertex 51.98016926608806 10.635394828637262 -22.291184766559923
  endloop
endfacet
facet normal 1.481989535811864e-16 -0.9914448613738138 -0.1305261922200267
  outer loop
    vertex 51.98016926608806 10.698432050002475 -22.76999999999959
    vertex 49.58016926608807 10.635394828637263 -22.29118476655993
    vertex 49.58016926608807 10.698432050002472 -22.76999999999959
  endloop
endfacet
facet normal 1.8904365916016223e-16 -0.9238795325112868 -0.3826834323650895
  outer loop
    vertex 44.380169266088046 10.635394828637262 -22.291184766559923
    vertex 46.78016926608807 10.450579047003698 -21.84499999999959
    vertex 44.380169266088046 10.450579047003696 -21.844999999999587
  endloop
endfacet
facet normal 1.8904365916016223e-16 -0.9238795325112868 -0.3826834323650895
  outer loop
    vertex 46.78016926608807 10.450579047003698 -21.84499999999959
    vertex 44.380169266088046 10.635394828637262 -22.291184766559923
    vertex 46.78016926608807 10.635394828637263 -22.29118476655993
  endloop
endfacet
facet normal -2.4982529965521564e-16 -0.7933533402912343 -0.6087614290087219
  outer loop
    vertex 44.380169266088046 10.450579047003696 -21.844999999999587
    vertex 46.78016926608807 10.156579595197599 -21.461852454804475
    vertex 44.380169266088046 10.156579595197599 -21.461852454804475
  endloop
endfacet
facet normal -2.4982529965521564e-16 -0.7933533402912343 -0.6087614290087219
  outer loop
    vertex 46.78016926608807 10.156579595197599 -21.461852454804475
    vertex 44.380169266088046 10.450579047003696 -21.844999999999587
    vertex 46.78016926608807 10.450579047003698 -21.84499999999959
  endloop
endfacet
facet normal -1.813187677939695e-16 -0.9238795325112868 -0.3826834323650895
  outer loop
    vertex 49.58016926608807 10.450579047003698 -21.84499999999959
    vertex 51.98016926608806 10.635394828637262 -22.291184766559923
    vertex 51.98016926608806 10.450579047003696 -21.844999999999587
  endloop
endfacet
facet normal -1.813187677939695e-16 -0.9238795325112868 -0.3826834323650895
  outer loop
    vertex 51.98016926608806 10.635394828637262 -22.291184766559923
    vertex 49.58016926608807 10.450579047003698 -21.84499999999959
    vertex 49.58016926608807 10.635394828637263 -22.29118476655993
  endloop
endfacet
facet normal -6.087211747686436e-16 0.923879532511279 -0.3826834323651091
  outer loop
    vertex 51.98016926608806 7.0614692713677005 -22.291184766559923
    vertex 49.58016926608807 7.246285053001273 -21.84499999999959
    vertex 51.98016926608806 7.246285053001276 -21.84499999999959
  endloop
endfacet
facet normal -6.087211747686436e-16 0.923879532511279 -0.3826834323651091
  outer loop
    vertex 49.58016926608807 7.246285053001273 -21.84499999999959
    vertex 51.98016926608806 7.0614692713677005 -22.291184766559923
    vertex 49.58016926608807 7.061469271367698 -22.29118476655993
  endloop
endfacet
facet normal -7.377118096462875e-17 -0.13052619221997105 0.991444861373821
  outer loop
    vertex 51.98016926608806 8.848432050002486 -24.61999999999955
    vertex 49.58016926608807 9.327247283442155 -24.55696277863437
    vertex 49.58016926608807 8.848432050002486 -24.61999999999955
  endloop
endfacet
facet normal -7.377118096462875e-17 -0.13052619221997105 0.991444861373821
  outer loop
    vertex 49.58016926608807 9.327247283442155 -24.55696277863437
    vertex 51.98016926608806 8.848432050002486 -24.61999999999955
    vertex 51.98016926608806 9.327247283442151 -24.55696277863437
  endloop
endfacet
facet normal 4.865765702483323e-16 0.9914448613738088 0.13052619222006362
  outer loop
    vertex 51.98016926608806 7.0614692713677005 -23.24881523343925
    vertex 49.58016926608807 6.998432050002477 -22.769999999999587
    vertex 51.98016926608806 6.998432050002477 -22.769999999999587
  endloop
endfacet
facet normal 4.865765702483323e-16 0.9914448613738088 0.13052619222006362
  outer loop
    vertex 49.58016926608807 6.998432050002477 -22.769999999999587
    vertex 51.98016926608806 7.0614692713677005 -23.24881523343925
    vertex 49.58016926608807 7.061469271367703 -23.248815233439252
  endloop
endfacet
facet normal 3.950199712813228e-16 0.38268343236509056 -0.9238795325112865
  outer loop
    vertex 51.98016926608806 8.369616816562823 -20.98303722136481
    vertex 49.58016926608807 7.923432050002482 -21.16785300299838
    vertex 49.58016926608807 8.369616816562818 -20.983037221364818
  endloop
endfacet
facet normal 3.950199712813228e-16 0.38268343236509056 -0.9238795325112865
  outer loop
    vertex 49.58016926608807 7.923432050002482 -21.16785300299838
    vertex 51.98016926608806 8.369616816562823 -20.98303722136481
    vertex 51.98016926608806 7.923432050002485 -21.16785300299838
  endloop
endfacet
facet normal -6.604527567063577e-16 0.793353340291237 -0.6087614290087182
  outer loop
    vertex 51.98016926608806 7.246285053001276 -21.84499999999959
    vertex 49.58016926608807 7.540284504807367 -21.461852454804482
    vertex 51.98016926608806 7.5402845048073734 -21.461852454804475
  endloop
endfacet
facet normal -6.604527567063577e-16 0.793353340291237 -0.6087614290087182
  outer loop
    vertex 49.58016926608807 7.540284504807367 -21.461852454804482
    vertex 51.98016926608806 7.246285053001276 -21.84499999999959
    vertex 49.58016926608807 7.246285053001273 -21.84499999999959
  endloop
endfacet
facet normal -4.121487976317995e-16 0.9914448613738107 -0.13052619222005046
  outer loop
    vertex 51.98016926608806 6.998432050002477 -22.769999999999587
    vertex 49.58016926608807 7.061469271367698 -22.29118476655993
    vertex 51.98016926608806 7.0614692713677005 -22.291184766559923
  endloop
endfacet
facet normal -4.121487976317995e-16 0.9914448613738107 -0.13052619222005046
  outer loop
    vertex 49.58016926608807 7.061469271367698 -22.29118476655993
    vertex 51.98016926608806 6.998432050002477 -22.769999999999587
    vertex 49.58016926608807 6.998432050002477 -22.769999999999587
  endloop
endfacet
facet normal 1.1044030507871793e-15 0.7933533402912398 0.6087614290087144
  outer loop
    vertex 51.98016926608806 7.540284504807369 -24.078147545194703
    vertex 49.58016926608807 7.246285053001282 -23.69499999999959
    vertex 51.98016926608806 7.246285053001276 -23.694999999999588
  endloop
endfacet
facet normal 1.1044030507871793e-15 0.7933533402912398 0.6087614290087144
  outer loop
    vertex 49.58016926608807 7.246285053001282 -23.69499999999959
    vertex 51.98016926608806 7.540284504807369 -24.078147545194703
    vertex 49.58016926608807 7.540284504807374 -24.078147545194703
  endloop
endfacet
facet normal 0.0 -0.13052619222005252 -0.9914448613738103
  outer loop
    vertex 51.98016926608806 9.327247283442148 -20.983037221364768
    vertex 49.58016926608807 8.848432050002486 -20.919999999999543
    vertex 49.58016926608807 9.327247283442148 -20.983037221364768
  endloop
endfacet
facet normal 0.0 -0.13052619222005252 -0.9914448613738103
  outer loop
    vertex 49.58016926608807 8.848432050002486 -20.919999999999543
    vertex 51.98016926608806 9.327247283442148 -20.983037221364768
    vertex 51.98016926608806 8.848432050002486 -20.919999999999543
  endloop
endfacet
facet normal -1.0391520452994445e-15 -0.9238795325112819 0.38268343236510205
  outer loop
    vertex 49.58016926608807 10.450579047003687 -23.694999999999588
    vertex 51.98016926608806 10.635394828637262 -23.24881523343925
    vertex 49.58016926608807 10.635394828637263 -23.24881523343925
  endloop
endfacet
facet normal -1.0391520452994445e-15 -0.9238795325112819 0.38268343236510205
  outer loop
    vertex 51.98016926608806 10.635394828637262 -23.24881523343925
    vertex 49.58016926608807 10.450579047003687 -23.694999999999588
    vertex 51.98016926608806 10.450579047003684 -23.694999999999588
  endloop
endfacet
facet normal 2.1628615882392565e-16 -0.3826834323650998 0.9238795325112827
  outer loop
    vertex 51.98016926608806 9.327247283442151 -24.55696277863437
    vertex 49.58016926608807 9.773432050002482 -24.372146997000804
    vertex 49.58016926608807 9.327247283442155 -24.55696277863437
  endloop
endfacet
facet normal 2.1628615882392565e-16 -0.3826834323650998 0.9238795325112827
  outer loop
    vertex 49.58016926608807 9.773432050002482 -24.372146997000804
    vertex 51.98016926608806 9.327247283442151 -24.55696277863437
    vertex 51.98016926608806 9.773432050002487 -24.372146997000804
  endloop
endfacet
facet normal 7.238418158043791e-17 0.13052619221996684 0.9914448613738216
  outer loop
    vertex 51.98016926608806 8.369616816562823 -24.556962778634375
    vertex 49.58016926608807 8.848432050002486 -24.61999999999955
    vertex 49.58016926608807 8.369616816562827 -24.556962778634375
  endloop
endfacet
facet normal 7.238418158043791e-17 0.13052619221996684 0.9914448613738216
  outer loop
    vertex 49.58016926608807 8.848432050002486 -24.61999999999955
    vertex 51.98016926608806 8.369616816562823 -24.556962778634375
    vertex 51.98016926608806 8.848432050002486 -24.61999999999955
  endloop
endfacet
facet normal 9.717661411123924e-16 0.1305261922201264 -0.9914448613738007
  outer loop
    vertex 51.98016926608806 8.848432050002486 -20.919999999999543
    vertex 49.58016926608807 8.369616816562818 -20.983037221364818
    vertex 49.58016926608807 8.848432050002486 -20.919999999999543
  endloop
endfacet
facet normal 9.717661411123924e-16 0.1305261922201264 -0.9914448613738007
  outer loop
    vertex 49.58016926608807 8.369616816562818 -20.983037221364818
    vertex 51.98016926608806 8.848432050002486 -20.919999999999543
    vertex 51.98016926608806 8.369616816562823 -20.98303722136481
  endloop
endfacet
facet normal 9.167374410480895e-16 0.9238795325112822 0.382683432365101
  outer loop
    vertex 51.98016926608806 7.246285053001276 -23.694999999999588
    vertex 49.58016926608807 7.061469271367703 -23.248815233439252
    vertex 51.98016926608806 7.0614692713677005 -23.24881523343925
  endloop
endfacet
facet normal 9.167374410480895e-16 0.9238795325112822 0.382683432365101
  outer loop
    vertex 49.58016926608807 7.061469271367703 -23.248815233439252
    vertex 51.98016926608806 7.246285053001276 -23.694999999999588
    vertex 49.58016926608807 7.246285053001282 -23.69499999999959
  endloop
endfacet
facet normal -3.406550419696845e-18 0.6087614290087295 0.7933533402912284
  outer loop
    vertex 51.98016926608806 7.540284504807369 -24.078147545194703
    vertex 49.58016926608807 7.923432050002482 -24.372146997000808
    vertex 49.58016926608807 7.540284504807374 -24.078147545194703
  endloop
endfacet
facet normal -3.406550419696845e-18 0.6087614290087295 0.7933533402912284
  outer loop
    vertex 49.58016926608807 7.923432050002482 -24.372146997000808
    vertex 51.98016926608806 7.540284504807369 -24.078147545194703
    vertex 51.98016926608806 7.9234320500024875 -24.372146997000808
  endloop
endfacet
facet normal 1.0287782267476007e-15 -0.6087614290087302 0.7933533402912281
  outer loop
    vertex 51.98016926608806 9.773432050002487 -24.372146997000804
    vertex 49.58016926608807 10.156579595197591 -24.078147545194703
    vertex 49.58016926608807 9.773432050002482 -24.372146997000804
  endloop
endfacet
facet normal 1.0287782267476007e-15 -0.6087614290087302 0.7933533402912281
  outer loop
    vertex 49.58016926608807 10.156579595197591 -24.078147545194703
    vertex 51.98016926608806 9.773432050002487 -24.372146997000804
    vertex 51.98016926608806 10.156579595197595 -24.078147545194703
  endloop
endfacet
facet normal -1.285920822846689e-16 0.6087614290087223 -0.7933533402912338
  outer loop
    vertex 51.98016926608806 7.923432050002485 -21.16785300299838
    vertex 49.58016926608807 7.540284504807367 -21.461852454804482
    vertex 49.58016926608807 7.923432050002482 -21.16785300299838
  endloop
endfacet
facet normal -1.285920822846689e-16 0.6087614290087223 -0.7933533402912338
  outer loop
    vertex 49.58016926608807 7.540284504807367 -21.461852454804482
    vertex 51.98016926608806 7.923432050002485 -21.16785300299838
    vertex 51.98016926608806 7.5402845048073734 -21.461852454804475
  endloop
endfacet
facet normal 2.363268373368776e-16 -0.7933533402912342 -0.608761429008722
  outer loop
    vertex 49.58016926608807 10.450579047003698 -21.84499999999959
    vertex 51.98016926608806 10.156579595197599 -21.461852454804475
    vertex 49.58016926608807 10.156579595197599 -21.461852454804475
  endloop
endfacet
facet normal 2.363268373368776e-16 -0.7933533402912342 -0.608761429008722
  outer loop
    vertex 51.98016926608806 10.156579595197599 -21.461852454804475
    vertex 49.58016926608807 10.450579047003698 -21.84499999999959
    vertex 51.98016926608806 10.450579047003696 -21.844999999999587
  endloop
endfacet
facet normal 0.0 -0.7933533402912377 0.6087614290087172
  outer loop
    vertex 44.380169266088046 10.156579595197595 -24.078147545194703
    vertex 46.78016926608807 10.450579047003687 -23.694999999999588
    vertex 44.380169266088046 10.450579047003684 -23.694999999999588
  endloop
endfacet
facet normal 0.0 -0.7933533402912377 0.6087614290087172
  outer loop
    vertex 46.78016926608807 10.450579047003687 -23.694999999999588
    vertex 44.380169266088046 10.156579595197595 -24.078147545194703
    vertex 46.78016926608807 10.156579595197591 -24.078147545194703
  endloop
endfacet
facet normal -2.54642468644882e-16 -0.6087614290087676 -0.7933533402911992
  outer loop
    vertex 46.78016926608807 10.156579595197599 -21.461852454804475
    vertex 44.380169266088046 9.773432050002484 -21.16785300299833
    vertex 44.380169266088046 10.156579595197599 -21.461852454804475
  endloop
endfacet
facet normal -2.54642468644882e-16 -0.6087614290087676 -0.7933533402911992
  outer loop
    vertex 44.380169266088046 9.773432050002484 -21.16785300299833
    vertex 46.78016926608807 10.156579595197599 -21.461852454804475
    vertex 46.78016926608807 9.773432050002478 -21.167853002998328
  endloop
endfacet
facet normal 9.055516411231257e-17 -0.38268343236508623 -0.9238795325112884
  outer loop
    vertex 46.78016926608807 9.773432050002478 -21.167853002998328
    vertex 44.380169266088046 9.327247283442148 -20.983037221364768
    vertex 44.380169266088046 9.773432050002484 -21.16785300299833
  endloop
endfacet
facet normal 9.055516411231257e-17 -0.38268343236508623 -0.9238795325112884
  outer loop
    vertex 44.380169266088046 9.327247283442148 -20.983037221364768
    vertex 46.78016926608807 9.773432050002478 -21.167853002998328
    vertex 46.78016926608807 9.327247283442148 -20.983037221364768
  endloop
endfacet
facet normal -1.5371331600531737e-16 -0.9914448613738138 -0.1305261922200267
  outer loop
    vertex 44.380169266088046 10.698432050002475 -22.76999999999959
    vertex 46.78016926608807 10.635394828637263 -22.29118476655993
    vertex 44.380169266088046 10.635394828637262 -22.291184766559923
  endloop
endfacet
facet normal -1.5371331600531737e-16 -0.9914448613738138 -0.1305261922200267
  outer loop
    vertex 46.78016926608807 10.635394828637263 -22.29118476655993
    vertex 44.380169266088046 10.698432050002475 -22.76999999999959
    vertex 46.78016926608807 10.698432050002472 -22.76999999999959
  endloop
endfacet
facet normal 2.2539102686159036e-16 0.3826834323650935 0.9238795325112854
  outer loop
    vertex 46.78016926608807 7.923432050002482 -24.372146997000808
    vertex 44.380169266088046 8.369616816562823 -24.556962778634375
    vertex 44.380169266088046 7.9234320500024875 -24.372146997000808
  endloop
endfacet
facet normal 2.2539102686159036e-16 0.3826834323650935 0.9238795325112854
  outer loop
    vertex 44.380169266088046 8.369616816562823 -24.556962778634375
    vertex 46.78016926608807 7.923432050002482 -24.372146997000808
    vertex 46.78016926608807 8.369616816562827 -24.556962778634375
  endloop
endfacet
facet normal -7.524953256242347e-19 -0.9914448613738136 0.13052619222002745
  outer loop
    vertex 44.380169266088046 10.635394828637262 -23.24881523343925
    vertex 46.78016926608807 10.698432050002472 -22.76999999999959
    vertex 44.380169266088046 10.698432050002475 -22.76999999999959
  endloop
endfacet
facet normal -7.524953256242347e-19 -0.9914448613738136 0.13052619222002745
  outer loop
    vertex 46.78016926608807 10.698432050002472 -22.76999999999959
    vertex 44.380169266088046 10.635394828637262 -23.24881523343925
    vertex 46.78016926608807 10.635394828637263 -23.24881523343925
  endloop
endfacet
facet normal 2.746720599884319e-16 -9.000959342176765e-16 -1.0
  outer loop
    vertex 36.78016926608805 15.548432050002477 -24.269999999999577
    vertex 21.380169266088057 2.1484320500024716 -24.26999999999957
    vertex 21.380169266088057 15.548432050002477 -24.269999999999577
  endloop
endfacet
facet normal 2.746720599884319e-16 -9.000959342176765e-16 -1.0
  outer loop
    vertex 21.380169266088057 2.1484320500024716 -24.26999999999957
    vertex 36.78016926608805 15.548432050002477 -24.269999999999577
    vertex 36.78016926608805 2.14843205000248 -24.26999999999957
  endloop
endfacet
facet normal 2.746720599884319e-16 -9.000959342176765e-16 -1.0
  outer loop
    vertex 36.78016926608805 2.14843205000248 -24.26999999999957
    vertex 36.78016926608805 15.548432050002477 -24.269999999999577
    vertex 36.78016926608805 13.54843205000248 -24.269999999999577
  endloop
endfacet
facet normal 2.746720599884319e-16 -9.000959342176765e-16 -1.0
  outer loop
    vertex 36.78016926608805 2.14843205000248 -24.26999999999957
    vertex 36.78016926608805 13.54843205000248 -24.269999999999577
    vertex 36.78016926608805 4.148432050002482 -24.269999999999552
  endloop
endfacet
facet normal -1.0 0.0 0.0
  outer loop
    vertex 36.78016926608805 4.148432050002457 -26.069999999999567
    vertex 36.78016926608805 13.54843205000248 -24.269999999999577
    vertex 36.78016926608805 13.54843205000248 -26.06999999999957
  endloop
endfacet
facet normal -1.0 0.0 0.0
  outer loop
    vertex 36.78016926608805 13.54843205000248 -24.269999999999577
    vertex 36.78016926608805 4.148432050002457 -26.069999999999567
    vertex 36.78016926608805 4.148432050002482 -24.269999999999552
  endloop
endfacet
facet normal -1.0939811350497993e-15 -1.0 1.6644546327051965e-15
  outer loop
    vertex 36.78016926608805 4.148432050002482 -24.269999999999552
    vertex 50.48016926608806 4.1484320500024605 -19.26999999999953
    vertex 36.78016926608805 4.1484320500024845 -19.269999999999527
  endloop
endfacet
facet normal -1.0939811350497993e-15 -1.0 1.6644546327051965e-15
  outer loop
    vertex 50.48016926608806 4.1484320500024605 -19.26999999999953
    vertex 36.78016926608805 4.148432050002482 -24.269999999999552
    vertex 50.48016926608806 4.14843205000246 -26.069999999999567
  endloop
endfacet
facet normal -1.0939811350497993e-15 -1.0 1.6644546327051965e-15
  outer loop
    vertex 50.48016926608806 4.14843205000246 -26.069999999999567
    vertex 36.78016926608805 4.148432050002482 -24.269999999999552
    vertex 36.78016926608805 4.148432050002457 -26.069999999999567
  endloop
endfacet
facet normal -1.831147066589544e-16 1.0 -5.639932965095792e-16
  outer loop
    vertex 36.78016926608805 15.548432050002477 -24.269999999999577
    vertex 21.380169266088057 15.548432050002457 -19.269999999999555
    vertex 36.78016926608805 15.548432050002463 -19.269999999999555
  endloop
endfacet
facet normal -1.831147066589544e-16 1.0 -5.639932965095792e-16
  outer loop
    vertex 21.380169266088057 15.548432050002457 -19.269999999999555
    vertex 36.78016926608805 15.548432050002477 -24.269999999999577
    vertex 21.380169266088057 15.548432050002477 -24.269999999999577
  endloop
endfacet
facet normal 1.0 0.0 0.0
  outer loop
    vertex 36.78016926608805 15.548432050002463 -19.269999999999555
    vertex 36.78016926608805 13.54843205000248 -24.269999999999577
    vertex 36.78016926608805 15.548432050002477 -24.269999999999577
  endloop
endfacet
facet normal 1.0 0.0 0.0
  outer loop
    vertex 36.78016926608805 13.54843205000248 -24.269999999999577
    vertex 36.78016926608805 15.548432050002463 -19.269999999999555
    vertex 36.78016926608805 13.548432050002456 -19.269999999999573
  endloop
endfacet
facet normal 5.493441199768632e-16 -1.0 1.127986593019159e-15
  outer loop
    vertex 21.380169266088057 2.1484320500024716 -24.26999999999957
    vertex 36.78016926608805 2.148432050002487 -19.269999999999566
    vertex 21.380169266088057 2.1484320500024787 -19.269999999999566
  endloop
endfacet
facet normal 5.493441199768632e-16 -1.0 1.127986593019159e-15
  outer loop
    vertex 36.78016926608805 2.148432050002487 -19.269999999999566
    vertex 21.380169266088057 2.1484320500024716 -24.26999999999957
    vertex 36.78016926608805 2.14843205000248 -24.26999999999957
  endloop
endfacet
facet normal 1.0 0.0 0.0
  outer loop
    vertex 36.78016926608805 2.148432050002487 -19.269999999999566
    vertex 36.78016926608805 4.148432050002482 -24.269999999999552
    vertex 36.78016926608805 4.1484320500024845 -19.269999999999527
  endloop
endfacet
facet normal 1.0 0.0 0.0
  outer loop
    vertex 36.78016926608805 4.148432050002482 -24.269999999999552
    vertex 36.78016926608805 2.148432050002487 -19.269999999999566
    vertex 36.78016926608805 2.14843205000248 -24.26999999999957
  endloop
endfacet
facet normal 0.13052619222005263 -0.9914448613738103 0.0
  outer loop
    vertex 50.48016926608806 4.14843205000246 -26.069999999999567
    vertex 50.868397833741845 4.199543310568858 -19.26999999999953
    vertex 50.48016926608806 4.1484320500024605 -19.26999999999953
  endloop
endfacet
facet normal 0.13052619222005263 -0.9914448613738103 0.0
  outer loop
    vertex 50.868397833741845 4.199543310568858 -19.26999999999953
    vertex 50.48016926608806 4.14843205000246 -26.069999999999567
    vertex 50.868397833741845 4.199543310568857 -26.069999999999567
  endloop
endfacet
facet normal 0.38268343236508695 -0.923879532511288 0.0
  outer loop
    vertex 50.868397833741845 4.199543310568857 -26.069999999999567
    vertex 51.23016926608806 4.3493939443258025 -19.26999999999953
    vertex 50.868397833741845 4.199543310568858 -19.26999999999953
  endloop
endfacet
facet normal 0.38268343236508695 -0.923879532511288 0.0
  outer loop
    vertex 51.23016926608806 4.3493939443258025 -19.26999999999953
    vertex 50.868397833741845 4.199543310568857 -26.069999999999567
    vertex 51.23016926608806 4.349393944325801 -26.069999999999567
  endloop
endfacet
facet normal 0.6087614290087161 -0.7933533402912386 0.0
  outer loop
    vertex 51.23016926608806 4.349393944325801 -26.069999999999567
    vertex 51.540829437867885 4.587771878222639 -19.269999999999534
    vertex 51.23016926608806 4.3493939443258025 -19.26999999999953
  endloop
endfacet
facet normal 0.6087614290087161 -0.7933533402912386 0.0
  outer loop
    vertex 51.540829437867885 4.587771878222639 -19.269999999999534
    vertex 51.23016926608806 4.349393944325801 -26.069999999999567
    vertex 51.540829437867885 4.587771878222637 -26.069999999999567
  endloop
endfacet
facet normal 0.793353340291247 -0.6087614290087052 0.0
  outer loop
    vertex 51.77920737176471 4.89843205000246 -19.269999999999534
    vertex 51.540829437867885 4.587771878222637 -26.069999999999567
    vertex 51.77920737176471 4.898432050002458 -26.069999999999567
  endloop
endfacet
facet normal 0.793353340291247 -0.6087614290087052 0.0
  outer loop
    vertex 51.540829437867885 4.587771878222637 -26.069999999999567
    vertex 51.77920737176471 4.89843205000246 -19.269999999999534
    vertex 51.540829437867885 4.587771878222639 -19.269999999999534
  endloop
endfacet
facet normal 0.9238795325112795 -0.3826834323651073 0.0
  outer loop
    vertex 51.92905800552167 5.260203482348678 -19.269999999999534
    vertex 51.77920737176471 4.898432050002458 -26.069999999999567
    vertex 51.92905800552167 5.260203482348676 -26.069999999999567
  endloop
endfacet
facet normal 0.9238795325112795 -0.3826834323651073 0.0
  outer loop
    vertex 51.77920737176471 4.898432050002458 -26.069999999999567
    vertex 51.92905800552167 5.260203482348678 -19.269999999999534
    vertex 51.77920737176471 4.89843205000246 -19.269999999999534
  endloop
endfacet
facet normal 0.9914448613738114 -0.13052619222004508 0.0
  outer loop
    vertex 51.98016926608806 5.648432050002457 -19.269999999999534
    vertex 51.92905800552167 5.260203482348676 -26.069999999999567
    vertex 51.98016926608806 5.648432050002455 -26.06999999999956
  endloop
endfacet
facet normal 0.9914448613738114 -0.13052619222004508 0.0
  outer loop
    vertex 51.92905800552167 5.260203482348676 -26.069999999999567
    vertex 51.98016926608806 5.648432050002457 -19.269999999999534
    vertex 51.92905800552167 5.260203482348678 -19.269999999999534
  endloop
endfacet
facet normal 0.1305261922200597 0.9914448613738094 0.0
  outer loop
    vertex 50.868397833741845 13.497320789436085 -26.06999999999957
    vertex 50.48016926608806 13.548432050002482 -19.269999999999573
    vertex 50.868397833741845 13.497320789436083 -19.269999999999573
  endloop
endfacet
facet normal 0.1305261922200597 0.9914448613738094 0.0
  outer loop
    vertex 50.48016926608806 13.548432050002482 -19.269999999999573
    vertex 50.868397833741845 13.497320789436085 -26.06999999999957
    vertex 50.48016926608806 13.548432050002486 -26.06999999999957
  endloop
endfacet
facet normal 0.9914448613738114 0.1305261922200446 0.0
  outer loop
    vertex 51.92905800552167 12.436660617656264 -19.269999999999573
    vertex 51.98016926608806 12.048432050002482 -26.06999999999957
    vertex 51.92905800552167 12.436660617656264 -26.06999999999957
  endloop
endfacet
facet normal 0.9914448613738114 0.1305261922200446 0.0
  outer loop
    vertex 51.98016926608806 12.048432050002482 -26.06999999999957
    vertex 51.92905800552167 12.436660617656264 -19.269999999999573
    vertex 51.98016926608806 12.048432050002482 -19.269999999999573
  endloop
endfacet
facet normal 0.9238795325112793 0.382683432365108 0.0
  outer loop
    vertex 51.77920737176471 12.798432050002479 -19.269999999999573
    vertex 51.92905800552167 12.436660617656264 -26.06999999999957
    vertex 51.77920737176471 12.798432050002482 -26.06999999999957
  endloop
endfacet
facet normal 0.9238795325112793 0.382683432365108 0.0
  outer loop
    vertex 51.92905800552167 12.436660617656264 -26.06999999999957
    vertex 51.77920737176471 12.798432050002479 -19.269999999999573
    vertex 51.92905800552167 12.436660617656264 -19.269999999999573
  endloop
endfacet
facet normal 0.793353340291249 0.6087614290087026 0.0
  outer loop
    vertex 51.540829437867885 13.109092221782301 -19.269999999999573
    vertex 51.77920737176471 12.798432050002482 -26.06999999999957
    vertex 51.540829437867885 13.109092221782303 -26.06999999999957
  endloop
endfacet
facet normal 0.793353340291249 0.6087614290087026 0.0
  outer loop
    vertex 51.77920737176471 12.798432050002482 -26.06999999999957
    vertex 51.540829437867885 13.109092221782301 -19.269999999999573
    vertex 51.77920737176471 12.798432050002479 -19.269999999999573
  endloop
endfacet
facet normal 0.6087614290087127 0.7933533402912413 0.0
  outer loop
    vertex 51.540829437867885 13.109092221782303 -26.06999999999957
    vertex 51.23016926608806 13.347470155679137 -19.269999999999573
    vertex 51.540829437867885 13.109092221782301 -19.269999999999573
  endloop
endfacet
facet normal 0.6087614290087127 0.7933533402912413 0.0
  outer loop
    vertex 51.23016926608806 13.347470155679137 -19.269999999999573
    vertex 51.540829437867885 13.109092221782303 -26.06999999999957
    vertex 51.23016926608806 13.347470155679138 -26.06999999999957
  endloop
endfacet
facet normal 0.38268343236509306 0.9238795325112853 0.0
  outer loop
    vertex 51.23016926608806 13.347470155679138 -26.06999999999957
    vertex 50.868397833741845 13.497320789436083 -19.269999999999573
    vertex 51.23016926608806 13.347470155679137 -19.269999999999573
  endloop
endfacet
facet normal 0.38268343236509306 0.9238795325112853 0.0
  outer loop
    vertex 50.868397833741845 13.497320789436083 -19.269999999999573
    vertex 51.23016926608806 13.347470155679138 -26.06999999999957
    vertex 50.868397833741845 13.497320789436085 -26.06999999999957
  endloop
endfacet
endsolid IBL_Frame2TTL
